<svg width="39" height="39" viewBox="0 0 39 39" fill="none" xmlns="http://www.w3.org/2000/svg">
<path d="M12.8149 31.1781C11.1635 31.1781 9.52737 31.1781 7.87596 31.1781C7.73834 31.1781 7.70776 31.1628 7.70776 31.0099C7.70776 23.181 7.70776 15.3521 7.70776 7.52318C7.70776 7.37027 7.75364 7.35498 7.89125 7.35498C15.7049 7.35498 23.5338 7.35498 31.3474 7.35498C31.485 7.35498 31.5309 7.37027 31.5309 7.52318C31.5309 15.3521 31.5309 23.181 31.5309 31.0099C31.5309 31.1475 31.5003 31.1781 31.3627 31.1781C29.7419 31.1781 28.1363 31.1781 26.5155 31.1781C26.5308 31.0558 26.6378 31.0405 26.7143 31.0099C27.0813 30.8111 27.2953 30.5206 27.3412 30.0925C27.4788 28.7469 27.5859 27.4166 27.7235 26.071C27.8458 24.8324 27.9528 23.5938 28.0752 22.3553C28.1669 21.4378 28.2434 20.5204 28.3198 19.6029C28.4421 18.3491 28.5492 17.08 28.6715 15.8261C28.7021 15.505 28.7021 15.505 28.381 15.505C27.8611 15.505 27.3412 15.505 26.8366 15.505C25.6745 15.5203 24.5124 15.505 23.3503 15.505C22.494 15.505 21.6224 15.505 20.7661 15.505C20.6438 15.505 20.5368 15.5203 20.4297 15.4744C20.3074 15.4133 20.3686 15.3215 20.3839 15.2298C20.4144 14.8016 20.445 14.3735 20.3533 13.9606C20.0475 12.6609 18.9465 11.7587 17.6009 11.7587C17.0658 11.7587 17.0658 11.7587 17.0658 11.2236C17.0658 10.933 17.0658 10.6425 17.0658 10.3367C17.0658 10.2449 17.0505 10.1379 17.1269 10.0462C17.234 9.96971 17.3716 10.0003 17.4939 10.0003C17.5856 10.0003 17.6774 10.0156 17.7691 9.95442C17.8915 9.89326 17.9068 9.77093 17.9068 9.64861C17.9068 9.17459 17.922 8.68528 17.9068 8.21127C17.8915 7.78312 17.6009 7.4926 17.1728 7.47731C16.607 7.46202 16.0413 7.47731 15.4755 7.47731C14.9403 7.47731 14.3899 7.47731 13.8547 7.47731C13.2889 7.47731 12.9984 7.75254 12.9984 8.33359C12.9984 8.76174 12.9984 9.18988 12.9984 9.60273C12.9984 9.87797 13.0748 9.95442 13.3654 9.96971C13.5183 9.985 13.6559 9.95442 13.7935 10.0156C13.8853 10.092 13.87 10.1991 13.87 10.2908C13.87 10.6578 13.87 11.0248 13.87 11.4071C13.87 11.6823 13.8241 11.7282 13.5489 11.7282C12.9984 11.7282 12.4632 11.8046 11.9892 12.0798C11.0412 12.615 10.5519 13.4102 10.5213 14.4652C10.5213 14.6487 10.5213 14.8322 10.5213 15.0157C10.5366 15.3827 10.7048 15.6426 11.0259 15.8108C11.1176 15.8567 11.2552 15.8567 11.2552 16.0096C11.2247 16.0249 11.2705 16.0096 11.2399 16.0249C10.6436 16.2542 10.506 16.713 10.5213 17.3093C10.5519 18.135 10.5519 18.9607 10.5213 19.7864C10.4907 20.3675 10.6589 20.7956 11.2399 21.025C11.3011 21.1779 11.1482 21.1779 11.087 21.2238C10.4295 21.5449 10.3225 22.3247 10.873 22.7834C10.9647 22.8599 11.0717 22.8905 11.1788 22.9516C11.2858 23.0128 11.3011 23.074 11.1788 23.1198C11.0412 23.181 10.9035 23.2422 10.7965 23.3645C10.3684 23.8079 10.4754 24.5113 11.0106 24.8018C11.0412 24.8171 11.087 24.8324 11.1176 24.8477C11.1788 24.8783 11.2705 24.8936 11.2705 24.97C11.2705 25.0465 11.1788 25.0618 11.1176 25.0924C10.7506 25.2911 10.5671 25.6122 10.5519 26.0251C10.5366 26.8814 10.5213 27.7224 10.5519 28.5787C10.5977 29.6949 11.454 30.7041 12.555 31.0099C12.6467 31.0405 12.7537 31.0405 12.8455 31.1017C12.8302 31.1322 12.8302 31.1628 12.8149 31.1781Z" fill="#FEFEFE"/>
<path d="M12.8149 31.1323C11.821 31.0558 10.8118 30.1537 10.5518 29.1139C10.4907 28.854 10.4448 28.594 10.4448 28.3188C10.4601 27.6001 10.4448 26.8814 10.4448 26.1628C10.4448 25.5664 10.6589 25.23 11.2094 24.9854C10.7048 24.8019 10.4142 24.4961 10.4448 23.9303C10.4754 23.4563 10.7659 23.1811 11.2094 23.0282C10.8882 22.9517 10.6742 22.7835 10.5366 22.493C10.2766 21.9731 10.5213 21.3615 11.0564 21.1474C11.1176 21.1168 11.1941 21.1168 11.2399 21.0556C11.2858 21.0098 11.3317 21.0098 11.3928 21.0098C11.5152 21.0403 11.6375 21.0403 11.7598 21.0403C13.6865 21.0403 15.6284 21.0403 17.5551 21.0403C18.0138 21.0403 18.3502 21.2391 18.5184 21.652C18.7172 22.1566 18.5642 22.7988 17.922 23.0282C18.3349 23.1811 18.5795 23.5022 18.5948 23.9303C18.6101 24.4502 18.4113 24.7713 17.9067 24.9854C18.3655 25.1842 18.5642 25.5817 18.5795 26.0405C18.5948 26.9732 18.6713 27.9059 18.5337 28.8234C18.3655 29.9243 17.7233 30.6889 16.6682 31.0864C16.4694 31.1629 16.2553 31.1476 16.0566 31.1935C15.0474 31.1935 14.0382 31.1935 13.0443 31.1935C12.9831 31.1323 12.8913 31.1935 12.8149 31.1323Z" fill="#C5E6F6"/>
<path d="M24.5581 31.1781C23.5183 31.1781 22.4786 31.1781 21.4541 31.1781C20.9036 31.0405 20.6131 30.6735 20.5366 30.1231C20.4755 29.6796 20.4143 29.2209 20.3531 28.7775C20.3531 28.0282 20.3378 27.2637 20.3531 26.5144C20.3684 26.0098 20.3073 25.5358 19.9709 25.123C19.9403 25.0465 19.9403 24.9701 19.9556 24.8936C19.9709 24.8019 20.0473 24.756 20.1085 24.6948C20.5366 24.282 20.506 23.6245 20.032 23.2575C20.0014 23.2269 19.9556 23.2116 19.925 23.181C19.7874 23.0587 19.7874 23.0128 19.925 22.8905C20.032 22.8141 20.1391 22.7376 20.2155 22.6306C20.5825 22.1565 20.399 21.4685 19.8638 21.2238C19.7874 21.1932 19.6345 21.2085 19.6497 21.0403C19.6956 20.9944 19.7568 20.9792 19.8027 20.9486C20.1849 20.7804 20.3531 20.4898 20.3684 20.077C20.3684 19.9852 20.3684 19.8782 20.3684 19.7865C20.3684 19.6947 20.3837 19.6183 20.4755 19.5724C20.5825 19.5418 20.6895 19.5571 20.7966 19.5571C22.555 19.5571 24.3287 19.5571 26.0872 19.5571C26.1942 19.5571 26.3166 19.5418 26.4236 19.5877C26.5 19.6336 26.4848 19.7253 26.4848 19.8018C26.4236 20.6275 26.3318 21.4532 26.2554 22.2636C26.1636 23.1963 26.0872 24.1291 25.9954 25.0465C25.9037 26.1169 25.7967 27.1872 25.6896 28.2576C25.6285 28.8386 25.5826 29.4197 25.5214 30.016C25.5214 30.0466 25.5214 30.0619 25.5214 30.0925C25.4908 30.7041 25.1697 31.0711 24.5581 31.1781Z" fill="#73C1ED"/>
<path d="M24.5581 31.1781C25.185 30.9793 25.4603 30.5511 25.4908 29.8936C25.5367 29.0526 25.6285 28.2269 25.7202 27.4012C25.812 26.5755 25.8884 25.7345 25.9496 24.9088C26.026 23.9149 26.1331 22.921 26.2248 21.9271C26.3013 21.2543 26.3624 20.5662 26.4083 19.8934C26.4083 19.817 26.4389 19.7252 26.4542 19.6488C26.5306 19.5723 26.6224 19.5723 26.7141 19.5723C27.1728 19.5723 27.6316 19.5723 28.0903 19.5723C28.182 19.5723 28.2738 19.5723 28.3502 19.6488C28.3044 20.2604 28.2585 20.8568 28.1973 21.4684C28.1515 22.0647 28.0903 22.6458 28.0291 23.2421C27.9527 24.0067 27.8762 24.7559 27.8151 25.5205C27.7539 26.2544 27.6774 26.9731 27.6163 27.7071C27.5398 28.548 27.4787 29.4043 27.3716 30.2453C27.3257 30.6429 27.0811 30.9334 26.6988 31.1016C26.6377 31.1322 26.5612 31.1628 26.5 31.1934C25.8578 31.1781 25.2156 31.1781 24.5581 31.1781Z" fill="#59ACD9"/>
<path d="M19.6343 21.0709C19.8637 21.1933 20.1236 21.2391 20.2765 21.4838C20.6129 22.0037 20.5212 22.5694 20.0013 22.9058C19.8637 22.9976 19.7872 23.0435 19.986 23.1505C20.5365 23.441 20.7047 24.3432 20.0472 24.8172C20.0319 24.8325 20.0166 24.8478 20.0013 24.8784C19.9401 24.9701 19.8331 24.9701 19.7261 25.0007C19.7108 25.0007 19.7566 25.0313 19.7413 25.0007C19.8331 24.9701 19.8943 25.0313 19.9707 25.0771C19.986 25.0771 20.0013 25.0924 20.0166 25.0924C20.3683 25.4594 20.4447 25.9181 20.4294 26.4074C20.3989 27.2026 20.4141 28.013 20.4141 28.8081C20.2612 29.9396 19.6037 30.6583 18.564 31.0711C18.3958 31.1323 18.2123 31.1323 18.0441 31.1782C17.3713 31.1782 16.7138 31.1782 16.041 31.1782C16.4232 31.0711 16.7902 30.9794 17.1266 30.7806C17.8912 30.3066 18.3346 29.6338 18.4416 28.7469C18.5487 27.8601 18.4875 26.9579 18.4722 26.0558C18.4722 25.5664 18.2428 25.1689 17.7077 24.9854C18.2581 24.8019 18.5487 24.4502 18.4875 23.8692C18.4416 23.4104 18.1511 23.1811 17.723 23.0435C17.9829 22.9976 18.1358 22.8447 18.304 22.6765C18.4875 22.493 18.4875 22.2636 18.5028 22.0343C18.5334 21.5908 18.0899 21.1015 17.57 21.1168C15.5822 21.1321 13.5944 21.1168 11.6066 21.1168C11.5149 21.1168 11.4231 21.1474 11.3467 21.0709C11.4384 20.9792 11.5455 20.9945 11.6525 20.9945C13.7168 20.9945 15.781 20.9945 17.8453 20.9945C18.3193 20.9945 18.8086 20.9945 19.2826 20.9945C19.4202 20.9945 19.5426 20.9792 19.6343 21.0709Z" fill="#B5DFF4"/>
<path d="M18.0596 31.1782C18.4724 31.0558 18.8853 30.9335 19.237 30.6736C19.8486 30.2301 20.2462 29.6338 20.3838 28.8998C20.3838 28.8692 20.4144 28.8539 20.4297 28.8234C20.4908 29.2668 20.552 29.7102 20.6131 30.1537C20.6743 30.6277 20.919 30.9335 21.3471 31.117C21.393 31.1323 21.4388 31.1476 21.4541 31.1934C20.3226 31.1782 19.1911 31.1782 18.0596 31.1782Z" fill="#FEFEFE"/>
<path d="M12.8149 31.1323C12.8914 31.1476 12.9831 31.1017 13.0443 31.1782C12.9679 31.1782 12.8914 31.1782 12.8149 31.1782C12.8149 31.1629 12.8149 31.1476 12.8149 31.1323Z" fill="#DAEFF9"/>
<path d="M17.8763 21.0709C15.705 21.0709 13.549 21.0709 11.3777 21.0709C11.3318 21.0709 11.2859 21.0709 11.24 21.0709C10.7354 20.9486 10.4602 20.6122 10.4602 20.0923C10.4602 19.0525 10.4602 18.0127 10.4602 16.9729C10.4602 16.4683 10.7354 16.1319 11.24 15.9943C11.3624 15.9026 11.5 15.9332 11.6376 15.9332C13.3655 15.9332 15.078 15.9332 16.8059 15.9332C17.1576 15.9332 17.5093 15.9485 17.8763 15.8873C18.3503 15.8873 18.8243 15.872 19.283 15.8873C19.3901 15.8873 19.5124 15.872 19.6041 15.979C19.5888 16.0555 19.543 16.0708 19.4818 16.0708C18.9772 16.0861 18.4573 16.1014 18.0598 16.0708C18.4114 16.1931 18.5643 16.5601 18.5949 16.9882C18.6255 17.3399 18.5949 17.6916 18.5949 18.0586C18.5949 18.6855 18.5949 19.3277 18.5949 19.9547C18.5949 20.0923 18.5949 20.2299 18.5491 20.3675C18.4573 20.7039 18.2585 20.9791 17.8763 21.0709Z" fill="#73C1ED"/>
<path d="M17.8763 15.9485C17.5093 16.0249 17.1423 15.9943 16.7753 15.9943C14.9252 15.9943 13.0903 15.9943 11.2401 15.9943C11.133 15.9485 11.026 15.9026 10.9342 15.8414C10.659 15.6885 10.4908 15.4592 10.4755 15.1686C10.4449 14.557 10.4297 13.9454 10.7049 13.3796C11.1483 12.4469 11.867 11.8964 12.8915 11.7282C13.1361 11.6823 13.3808 11.6823 13.6254 11.6823C13.7631 11.6823 13.8089 11.6365 13.8089 11.4988C13.8089 11.0248 13.8089 10.5355 13.8089 10.0615C13.8242 10.0156 13.8854 10.0003 13.9313 10.0003C14.3288 10.0003 14.7417 9.95447 15.1392 10.0156C15.2616 10.0921 15.2463 10.1991 15.2463 10.3062C15.2463 10.6426 15.2463 10.9637 15.2463 11.3001C15.2463 11.6059 15.2616 11.6212 15.5521 11.6212C16.3013 11.6212 16.9741 11.8199 17.5399 12.3093C18.1821 12.8597 18.5185 13.5631 18.5797 14.4041C18.595 14.6029 18.595 14.8017 18.5797 15.0004C18.5797 15.4898 18.3197 15.8109 17.8763 15.9485Z" fill="#C5E6F6"/>
<path d="M20.3378 15.4439C22.5091 15.4439 24.6651 15.4439 26.8364 15.4439C26.9129 15.5357 26.8976 15.6427 26.8823 15.7497C26.7752 16.8507 26.6682 17.9669 26.5765 19.0678C26.5306 19.5877 26.5306 19.5877 26.0107 19.5877C24.1605 19.5877 22.295 19.5877 20.4448 19.5877C20.3225 19.5113 20.3531 19.3889 20.3531 19.2666C20.3531 18.5785 20.3225 17.8904 20.3531 17.2024C20.3837 16.6672 20.2155 16.2696 19.7109 16.0403C19.6497 15.9791 19.6497 15.9179 19.7262 15.8873C19.9708 15.8109 20.139 15.5968 20.3378 15.4439Z" fill="#C5E6F6"/>
<path d="M20.3378 15.4438C20.2155 15.7343 19.9403 15.8567 19.6803 15.9943C19.6497 16.0249 19.6192 16.0249 19.5886 15.9943C19.5121 15.9331 19.4204 15.9484 19.3439 15.9484C18.8546 15.9484 18.3653 15.9484 17.8607 15.9484C18.1971 15.7802 18.4418 15.5203 18.5029 15.1533C18.5488 14.8475 18.5335 14.5417 18.5029 14.2205C18.4418 13.563 18.1512 12.982 17.6925 12.5233C17.2797 12.0951 16.7598 11.8199 16.1634 11.7281C15.9035 11.6976 15.6435 11.667 15.3683 11.6823C15.2154 11.6976 15.1848 11.6364 15.1848 11.4988C15.1848 11.0248 15.1848 10.5355 15.1848 10.0614C15.2613 9.98498 15.353 9.98499 15.4448 9.98499C15.9341 9.98499 16.4234 10.0003 16.928 10.0003C17.0044 10.0003 17.0809 10.0003 17.142 10.0614C17.142 10.5202 17.142 10.9942 17.1268 11.4529C17.1268 11.6364 17.1726 11.6976 17.3561 11.6823C17.8148 11.6517 18.2583 11.7129 18.6864 11.8963C19.5886 12.2939 20.1696 12.9667 20.3684 13.93C20.4754 14.4346 20.506 14.9392 20.3378 15.4438Z" fill="#B5DFF4"/>
<path d="M20.4299 19.5724C22.3565 19.5724 24.2985 19.5724 26.2251 19.5724C26.3933 19.5724 26.4392 19.5419 26.4545 19.3584C26.5462 18.5479 26.6074 17.7222 26.6838 16.9118C26.7297 16.4225 26.7756 15.9332 26.8215 15.4439C27.4025 15.4439 27.9989 15.4439 28.5799 15.4439C28.6869 15.4439 28.7481 15.4592 28.7328 15.5968C28.6564 16.239 28.6105 16.8965 28.5493 17.5388C28.5035 18.0892 28.4423 18.6397 28.4117 19.1902C28.3964 19.3431 28.3811 19.4807 28.3505 19.6183C27.7236 19.6183 27.0814 19.6183 26.4545 19.6183C24.5737 19.6183 22.6776 19.6183 20.7969 19.6183C20.6745 19.6183 20.5522 19.6183 20.4299 19.6183C20.4299 19.603 20.4146 19.603 20.4299 19.5724Z" fill="#B5DFF4"/>
<path d="M17.1421 10.0615C16.4846 10.0615 15.8423 10.0615 15.1848 10.0615C14.7261 10.0615 14.2521 10.0615 13.7934 10.0615C13.6099 10.0615 13.4264 10.0615 13.2429 10.0463C13.0288 10.0463 12.9065 9.93922 12.9065 9.72514C12.9065 9.22055 12.9065 8.71595 12.9065 8.22664C12.9218 7.75263 13.2429 7.43152 13.7169 7.43152C14.298 7.43152 14.879 7.43152 15.4601 7.43152C15.827 7.50797 16.0258 7.70675 16.0717 8.07373C16.1482 8.65479 16.1482 9.23584 16.087 9.83218C16.0717 9.98509 16.1482 9.95451 16.2246 9.95451C16.6375 9.95451 17.0503 9.95451 17.4785 9.95451C17.5855 9.95451 17.6925 9.93922 17.7843 10.031C17.5855 10.1074 17.3561 10.031 17.1421 10.0615Z" fill="#73C1ED"/>
<path d="M17.7998 10.0155C17.1882 10.0155 16.5918 10.0155 15.9343 10.0155C16.0872 9.81676 16.0719 9.61798 16.0719 9.4192C16.0413 9.00634 16.0719 8.59349 16.0413 8.18064C15.9955 7.78308 15.7967 7.56901 15.4756 7.4161C16.0566 7.4161 16.653 7.40081 17.234 7.4161C17.6316 7.4161 17.968 7.7525 17.968 8.16535C17.9833 8.70053 17.968 9.23571 17.968 9.7556C17.968 9.87792 17.9374 9.98496 17.7998 10.0155Z" fill="#59ACD9"/>
<path d="M20.4298 19.5724C20.4298 19.5877 20.4298 19.603 20.4298 19.6183C20.3992 19.8629 20.4603 20.1229 20.3839 20.3828C20.2769 20.7651 20.0169 20.9945 19.6346 21.0709C19.0536 21.0709 18.4572 21.0709 17.8762 21.0709C18.4114 20.7957 18.549 20.3522 18.5337 19.7865C18.5031 18.8843 18.5337 17.9822 18.5337 17.08C18.5337 16.5754 18.3502 16.2543 17.8303 16.0096C18.4572 16.0096 19.0383 16.0096 19.6041 16.0096C19.6346 16.0096 19.6652 16.0096 19.6958 16.0096C20.231 16.1931 20.4298 16.4837 20.4451 17.0494C20.4298 17.8751 20.4298 18.7314 20.4298 19.5724Z" fill="#59ACD9"/>
<path d="M20.0168 25.0923C19.8792 25.1382 19.8027 25.0006 19.6804 24.97C19.7875 24.9394 19.8945 24.9088 20.0015 24.8782C20.0168 24.9547 20.0168 25.0159 20.0168 25.0923Z" fill="#F7FBFD"/>
</svg>
