<svg width="39" height="39" viewBox="0 0 39 39" fill="none" xmlns="http://www.w3.org/2000/svg">
<path d="M19.4001 36.0558C28.7739 36.0558 36.3729 28.4568 36.3729 19.083C36.3729 9.70916 28.7739 2.11017 19.4001 2.11017C10.0262 2.11017 2.42725 9.70916 2.42725 19.083C2.42725 28.4568 10.0262 36.0558 19.4001 36.0558Z" fill="white"/>
<path d="M19.4002 28.6244C18.2533 28.6244 17.183 28.4104 16.1738 27.9822C15.1646 27.5541 14.293 26.9577 13.5438 26.2085C12.7945 25.4592 12.1982 24.5877 11.77 23.5785C11.3266 22.5693 11.1125 21.4836 11.1125 20.3368C11.1125 19.19 11.3266 18.1043 11.77 17.0951C12.2135 16.0859 12.7945 15.2297 13.5438 14.4651C14.293 13.7159 15.1646 13.1195 16.1738 12.6914C17.183 12.2632 18.2533 12.0492 19.4002 12.0492C20.547 12.0492 21.6173 12.2632 22.6265 12.6914C23.6357 13.1195 24.5226 13.7159 25.2718 14.4651C26.0211 15.2144 26.6174 16.1012 27.0456 17.1104C27.4737 18.1196 27.6878 19.19 27.6878 20.3521C27.6878 21.5142 27.4737 22.5846 27.0456 23.5937C26.6174 24.6029 26.0211 25.4745 25.2718 26.2238C24.5226 26.973 23.6357 27.5541 22.6265 27.9975C21.6173 28.4409 20.5317 28.6244 19.4002 28.6244ZM22.1984 24.0983L23.1617 23.135L20.1647 20.138V15.7495H18.7732V20.6885L22.1984 24.0983ZM13.2685 10.4895L14.2471 11.4681L10.455 15.1073L9.4917 14.144L13.2685 10.4895ZM25.5165 10.4895L29.3086 14.144L28.3453 15.1073L24.5532 11.4681L25.5165 10.4895ZM19.4002 27.2483C21.3268 27.2483 22.9629 26.5755 24.2932 25.2299C25.6388 23.8843 26.2963 22.2634 26.2963 20.3368C26.2963 18.4102 25.6235 16.774 24.2779 15.4437C22.9323 14.0981 21.3115 13.4406 19.3849 13.4406C17.4582 13.4406 15.8221 14.1134 14.4918 15.459C13.1462 16.8046 12.4887 18.4254 12.4887 20.3521C12.4887 22.2787 13.1615 23.9149 14.5071 25.2452C15.8374 26.5755 17.4735 27.2483 19.4002 27.2483Z" fill="#1D1D1B"/>
</svg>
