<svg width="39" height="40" viewBox="0 0 39 40" fill="none" xmlns="http://www.w3.org/2000/svg">
<path d="M9.11377 28.3972C9.11377 21.9903 9.11377 15.5835 9.11377 9.1613C9.11377 9.0084 9.14435 8.96252 9.31255 8.96252C16.4687 8.96252 23.6248 8.96252 30.7809 8.96252C30.9338 8.96252 30.9797 8.99311 30.9797 9.1613C30.9797 16.3174 30.9797 23.4735 30.9797 30.6296C30.9797 30.7825 30.9491 30.8284 30.7809 30.8284C23.6248 30.8284 16.4687 30.8284 9.31255 30.8284C9.15964 30.8284 9.11377 30.7978 9.11377 30.6296C9.12906 30.0333 9.11377 29.4217 9.11377 28.8253C9.22081 28.8253 9.2361 28.9171 9.26668 28.9782C9.43488 29.2382 9.66424 29.3605 9.98535 29.3605C10.7805 29.3605 11.5756 29.3605 12.386 29.3605C13.227 29.3605 14.068 29.3452 14.9243 29.3605C16.3005 29.3452 17.6766 29.3605 19.0681 29.3605C19.6339 29.3605 20.2149 29.3452 20.7807 29.3605C21.8663 29.3452 22.9673 29.3605 24.0529 29.3605C25.3526 29.3605 26.6677 29.3605 27.9674 29.3605C28.1814 29.3605 28.3191 29.284 28.4108 29.0853C28.5331 28.81 28.6402 28.5348 28.8237 28.3054C28.9154 28.2443 29.0224 28.2596 29.1295 28.2596C29.6035 28.2596 30.0928 28.2596 30.5668 28.2596C30.8268 28.2596 30.842 28.2443 30.842 27.9843C30.842 27.8926 30.8573 27.7855 30.8268 27.6938C30.7656 27.5868 30.6586 27.6326 30.5821 27.6326C29.6799 27.6326 28.7778 27.6326 27.8756 27.6326C27.7839 27.6326 27.6463 27.6632 27.6004 27.5715C27.5545 27.4491 27.6921 27.4033 27.7686 27.3268C28.3955 26.7458 28.7931 26.0271 28.9307 25.1861C28.946 25.0944 28.946 25.0026 29.0224 24.9262C29.0836 24.865 29.1753 24.8497 29.2518 24.8344C30.2304 24.5439 30.8573 23.7029 30.8573 22.6784C30.8573 21.9903 30.8573 21.2869 30.8573 20.5989C30.8573 20.3236 30.8115 20.2777 30.5668 20.1707C30.4751 20.1401 30.368 20.1554 30.2763 20.1554C26.9888 20.1707 23.6859 20.1554 20.3984 20.1707C20.3525 20.1707 20.3067 20.1707 20.2761 20.1707C19.8632 20.186 19.7562 20.293 19.7562 20.6906C19.7562 21.761 19.7562 22.816 19.7562 23.8864C19.7562 24.0087 19.7715 24.131 19.695 24.2381C19.6186 24.2992 19.5115 24.2992 19.4198 24.2992C19.1446 24.2839 18.854 24.3604 18.5788 24.2381C18.5023 24.131 18.5329 24.0087 18.5329 23.8864C18.5329 20.9964 18.5329 18.1217 18.5329 15.2318C18.5329 15.1247 18.5329 15.0024 18.5329 14.8954C18.1812 14.0085 17.7837 13.1369 17.4167 12.2501C17.4014 12.2195 17.4014 12.2042 17.4014 12.1736C17.3708 11.6996 17.4014 11.2256 17.3861 10.7516C17.3861 10.461 17.3708 10.4457 17.0803 10.4457C15.0925 10.4457 13.0894 10.4457 11.1016 10.4457C10.8111 10.4457 10.7958 10.461 10.7958 10.7668C10.7958 11.2409 10.8111 11.7149 10.7805 12.1889C10.597 12.6017 10.3829 13.0299 10.1994 13.458C10.0312 13.8709 9.86302 14.2684 9.69482 14.666C9.66424 14.7425 9.63366 14.8189 9.64895 14.8954C9.64895 19.1156 9.64895 23.3359 9.64895 27.5562C9.64895 27.6326 9.64895 27.6938 9.63366 27.7703C9.61837 27.8467 9.60308 27.9079 9.54191 27.9537C9.4043 28.0608 9.28197 28.1984 9.20551 28.3513C9.19022 28.3819 9.15964 28.4125 9.11377 28.3972Z" fill="#FEFEFE"/>
<path d="M9.11377 28.3973C9.2361 28.1832 9.389 27.9998 9.58779 27.8469C9.63366 27.7704 9.69482 27.7245 9.77128 27.6787C10.3523 27.2658 10.9181 26.8529 11.4991 26.4554C11.5756 26.4095 11.6368 26.3025 11.7591 26.3789C11.8202 26.4401 11.8202 26.5318 11.8508 26.6236C12.019 27.4799 12.1872 28.3209 12.3554 29.1772C12.3707 29.2689 12.4013 29.3606 12.3554 29.4524C11.6215 29.4524 10.9028 29.4371 10.1688 29.4677C9.66424 29.483 9.31255 29.3148 9.11377 28.856C9.11377 28.6878 9.11377 28.5349 9.11377 28.3973Z" fill="#C59B6C"/>
<path d="M29.0379 24.911C28.9614 25.385 28.8544 25.859 28.625 26.2871C28.3651 26.7764 28.0287 27.174 27.6006 27.5257C27.677 27.5868 27.7535 27.5563 27.8146 27.5563C28.7779 27.5563 29.726 27.5563 30.6893 27.5563C30.7658 27.5563 30.8422 27.5257 30.9034 27.5868C30.8116 27.6786 30.7046 27.6633 30.5976 27.6633C29.6648 27.6633 28.7321 27.6939 27.784 27.6633C25.6892 27.5868 23.5944 27.648 21.5148 27.6327C21.4078 27.6327 21.2854 27.6327 21.1784 27.6174C20.7503 27.3881 20.475 27.0211 20.2151 26.6235C19.7716 25.9507 19.5882 25.2015 19.6187 24.4064C19.6187 24.3299 19.6187 24.2687 19.6646 24.2076C19.6646 23.0149 19.6646 21.8222 19.6646 20.6295C19.6646 20.2014 19.7716 20.079 20.1998 20.079C22.9063 20.079 25.628 20.079 28.3345 20.079C29.0226 20.079 29.6954 20.079 30.3835 20.079C30.4599 20.079 30.5364 20.0638 30.6129 20.1096C30.5364 20.1861 30.4294 20.1708 30.3376 20.1708C29.8636 20.1708 29.3896 20.1861 28.9156 20.1555C28.9003 20.1555 28.9309 20.2014 28.9309 20.1708C28.9309 20.1555 28.9309 20.1555 28.9461 20.1708C29.0685 20.2167 29.0838 20.3237 29.0991 20.4307C29.1143 20.5684 29.1143 20.706 29.0991 20.8589C29.1143 21.9598 29.1143 23.0608 29.0991 24.1464C29.1143 24.3299 29.0991 24.5134 29.0991 24.7122C29.0991 24.7733 29.0991 24.8498 29.0379 24.911Z" fill="#F29222"/>
<path d="M11.6982 26.3483C11.0254 26.8223 10.3679 27.2963 9.69508 27.7703C9.64921 27.8009 9.60334 27.8162 9.57275 27.8468C9.57275 26.333 9.57275 24.8192 9.57275 23.3207C9.57275 20.4919 9.57275 17.6478 9.57275 14.819C9.64921 14.7425 9.75624 14.7578 9.84799 14.7578C11.897 14.7578 13.9612 14.7578 16.0102 14.7578C16.1019 14.7578 16.1937 14.7578 16.2854 14.8037C16.316 14.819 16.3313 14.8496 16.3313 14.8649C16.3619 14.9719 16.3619 15.0789 16.3619 15.186C16.3619 18.076 16.3619 20.9506 16.3619 23.8406C16.3619 23.9476 16.3772 24.0547 16.3313 24.1617C16.2701 24.2687 16.1631 24.2535 16.0714 24.2535C15.8267 24.2535 15.5821 24.2687 15.3374 24.2535C14.8634 24.2382 14.527 24.3911 14.3741 24.8651C14.3129 24.9721 14.2059 25.0027 14.0988 25.0333C13.5484 25.1862 12.9979 25.3544 12.4474 25.5073C12.0652 25.6143 11.8358 25.8437 11.7593 26.226C11.7593 26.2718 11.7441 26.3177 11.6982 26.3483Z" fill="#E6E5E5"/>
<path d="M14.3433 24.865C14.4197 24.4522 14.7102 24.2075 15.1384 24.1922C15.5207 24.1769 15.9182 24.1922 16.3005 24.1769C16.3464 24.1463 16.3922 24.1158 16.4534 24.1158C17.1262 24.1158 17.799 24.0852 18.4871 24.1311C18.5177 24.1463 18.533 24.1616 18.5635 24.1769C18.9305 24.1769 19.2975 24.1769 19.6645 24.1769C19.6492 24.8038 19.7103 25.4155 19.955 25.9965C20.1997 26.547 20.5361 27.0363 21.0101 27.4186C21.0559 27.4492 21.0865 27.495 21.1324 27.5409C21.0407 27.6327 20.9183 27.6021 20.8113 27.6021C20.062 27.6021 19.3128 27.6021 18.5635 27.6021C18.4718 27.6021 18.3189 27.5562 18.2883 27.6938C18.2424 27.8467 18.2424 28.0149 18.2883 28.1678C18.3189 28.2443 18.4259 28.229 18.5024 28.229C18.9764 28.229 19.4351 28.229 19.9091 28.229C20.0162 28.229 20.1232 28.229 20.2302 28.2443C20.2455 28.2596 20.2302 28.229 20.2455 28.2443C20.5208 28.5807 20.6737 28.963 20.8113 29.3605C20.8113 29.3758 20.796 29.3911 20.796 29.3911C19.8021 29.3911 18.7929 29.3911 17.799 29.3911C16.9121 29.3911 16.0253 29.3911 15.1384 29.3911C15.0619 29.3911 14.9855 29.3758 14.909 29.3758C14.802 29.2229 14.8173 29.0394 14.7867 28.8712C14.6185 27.6327 14.435 26.3941 14.2821 25.1402C14.2515 25.0638 14.2668 24.9568 14.3433 24.865Z" fill="#8B6239"/>
<path d="M16.3007 14.8189C14.053 14.8189 11.8205 14.8189 9.57275 14.8189C9.84799 14.1767 10.1232 13.5192 10.3985 12.877C10.4902 12.6629 10.5972 12.4335 10.689 12.2195C10.7807 12.143 10.8725 12.143 10.9795 12.143C13.0285 12.143 15.0775 12.143 17.1111 12.143C17.2182 12.143 17.3252 12.143 17.417 12.2195C17.4628 12.2959 17.4322 12.3724 17.4017 12.4488C17.0806 13.1828 16.7747 13.932 16.4536 14.666C16.4383 14.7119 16.423 14.7424 16.3925 14.773C16.3619 14.7883 16.3313 14.8189 16.3007 14.8189Z" fill="#CCCBCB"/>
<path d="M25.6891 17.4489C26.6065 17.4489 27.524 17.4489 28.4414 17.4489C28.7319 17.4489 28.9613 17.2807 29.0225 17.0208C29.0836 16.7914 28.9919 16.5468 28.7778 16.4092C28.6249 16.3174 28.4414 16.3021 28.2579 16.3021C26.8206 16.3021 25.3833 16.3021 23.9306 16.3021C23.3496 16.3021 22.8603 15.9046 22.7074 15.3388C22.4933 14.4978 23.1049 13.718 23.9612 13.7027C24.4964 13.7027 25.0316 13.7027 25.5515 13.7027C26.2242 13.7027 26.6371 13.351 26.7594 12.6935C26.7747 12.6017 26.8053 12.5712 26.897 12.5712C27.0652 12.5712 27.2182 12.5712 27.3864 12.5712C27.4934 12.5712 27.5393 12.6323 27.524 12.7394C27.4169 13.718 26.6371 14.4214 25.7808 14.4519C25.2303 14.4672 24.6952 14.4519 24.1447 14.4519C23.9765 14.4519 23.8236 14.4672 23.6707 14.5437C23.4719 14.666 23.3649 14.926 23.4107 15.1247C23.4719 15.3541 23.686 15.5529 23.9153 15.5835C23.9918 15.5835 24.0529 15.5835 24.1294 15.5835C25.5667 15.5835 27.0041 15.5835 28.4567 15.5835C29.1754 15.5835 29.7717 16.1492 29.7717 16.8679C29.7717 17.6477 29.1448 18.1829 28.5179 18.1829C26.7747 18.1829 25.0316 18.1829 23.2731 18.1829C22.6309 18.1829 22.004 18.4276 21.8969 19.238C21.8817 19.3144 21.8358 19.3297 21.7746 19.3297C21.6829 19.3297 21.5758 19.3297 21.4841 19.3297C21.1171 19.3297 21.1171 19.3297 21.1783 18.978C21.3159 18.1523 22.0957 17.4642 22.9367 17.4489C23.8695 17.4489 24.7716 17.4489 25.6891 17.4489Z" fill="#B3B3B2"/>
<path d="M17.4168 12.2196C16.8817 12.2196 16.3465 12.2196 15.796 12.2196C14.0987 12.2196 12.3862 12.2196 10.6889 12.2196C10.6889 11.6385 10.6889 11.0728 10.6736 10.4917C10.6736 10.3388 10.75 10.3388 10.8571 10.3388C11.591 10.3388 12.325 10.3388 13.0437 10.3388C14.4198 10.3388 15.796 10.3388 17.1722 10.3388C17.371 10.3388 17.4168 10.4 17.4168 10.5835C17.4168 11.1186 17.4168 11.6691 17.4168 12.2196Z" fill="#2BAAE2"/>
<path d="M14.3432 24.8651C14.282 25.1403 14.3737 25.4156 14.4043 25.6755C14.4655 26.2566 14.5725 26.8376 14.649 27.4187C14.7254 28.015 14.8172 28.6114 14.8936 29.223C14.9089 29.2995 14.8936 29.3606 14.9089 29.4371C14.0526 29.4371 13.2116 29.4371 12.3553 29.4371C12.233 28.8254 12.0954 28.1985 11.9731 27.5869C11.8966 27.1893 11.8049 26.7765 11.7131 26.3789C11.7284 25.859 11.9272 25.6144 12.4318 25.4767C13.0129 25.3085 13.5939 25.1403 14.175 24.9721C14.2361 24.9263 14.2973 24.911 14.3432 24.8651Z" fill="#A57C52"/>
<path d="M20.2609 28.3209C19.634 28.3209 19.007 28.3209 18.3648 28.3209C18.2119 28.3209 18.1661 28.275 18.1661 28.1221C18.1661 27.541 18.1508 27.541 18.7318 27.541C19.5269 27.541 20.3221 27.541 21.1172 27.541C22.3863 27.541 23.6708 27.541 24.9399 27.541C26.9277 27.5257 28.9002 27.6175 30.888 27.5869C30.888 27.7704 30.888 27.9386 30.9033 28.1221C30.9186 28.275 30.8727 28.3209 30.7045 28.3209C30.0776 28.3056 29.4507 28.3209 28.8238 28.3209C28.732 28.382 28.625 28.382 28.518 28.382C25.8573 28.382 23.212 28.382 20.5514 28.382C20.4597 28.382 20.3526 28.382 20.2609 28.3209Z" fill="#EA5B27"/>
<path d="M20.261 28.3209C23.1204 28.3209 25.9798 28.3209 28.8391 28.3209C28.6709 28.6573 28.5027 28.9937 28.3498 29.3301C28.2887 29.4524 28.1969 29.4218 28.1052 29.4218C26.2091 29.4218 24.3131 29.4218 22.4017 29.4218C21.8665 29.4218 21.3313 29.4524 20.7809 29.4218C20.6127 29.0548 20.4292 28.6878 20.261 28.3209Z" fill="#F29222"/>
<path d="M29.0377 24.911C29.0377 24.6511 29.0377 24.3911 29.0377 24.1465C29.0836 24.0853 29.1601 24.0547 29.2365 24.0241C29.7717 23.7336 30.0928 23.3208 30.0928 22.6938C30.0928 22.1892 30.0928 21.6846 30.0928 21.18C30.0928 20.9048 30.0775 20.9048 29.8023 20.9048C29.6341 20.9048 29.4659 20.9048 29.2977 20.9048C29.2059 20.9048 29.1295 20.9048 29.053 20.8436C29.053 20.706 29.053 20.5684 29.053 20.4461C29.053 20.3085 28.9766 20.232 28.8542 20.1097C29.4659 20.1097 30.0469 20.1097 30.628 20.1097C30.8115 20.1403 30.9185 20.2626 30.9185 20.4155C30.9185 21.2871 30.995 22.1587 30.8879 23.0302C30.7503 24.0241 30.0469 24.7122 29.0377 24.911Z" fill="#EA5B27"/>
<path d="M16.3464 14.7731C16.6828 13.9627 17.0345 13.1523 17.3709 12.3419C17.3862 12.296 17.4168 12.2654 17.4015 12.2195C17.6003 12.5712 17.7226 12.9382 17.8755 13.2899C18.0896 13.7792 18.2884 14.2685 18.5024 14.7731C18.4872 14.8802 18.3954 14.8649 18.319 14.8649C17.7073 14.8649 17.111 14.8649 16.4993 14.8649C16.4535 14.8649 16.3617 14.8802 16.3464 14.7731Z" fill="#0971B7"/>
<path d="M16.3464 14.7732C16.3923 14.8344 16.4534 14.8191 16.4993 14.8191C17.1262 14.8191 17.7379 14.8191 18.3648 14.8191C18.426 14.8191 18.4871 14.8344 18.5177 14.7732C18.5789 14.8496 18.5483 14.9567 18.5483 15.0331C18.5483 18.076 18.5483 21.1342 18.5483 24.1771H18.533H18.5177C18.426 24.0547 18.4565 23.9171 18.4565 23.7948C18.4565 20.9813 18.4565 18.183 18.4565 15.3695C18.4565 14.8802 18.4871 14.9261 17.9978 14.9261C17.5391 14.9261 17.0804 14.9261 16.6216 14.9261C16.5146 14.9261 16.4076 14.9414 16.3158 14.8649C16.3158 14.8496 16.3005 14.8344 16.3005 14.8191C16.3158 14.8038 16.3311 14.7885 16.3464 14.7732Z" fill="#48AADC"/>
<path d="M29.0378 20.8283C29.3589 20.8283 29.6801 20.8283 30.0012 20.8283C30.1082 20.8283 30.1694 20.8436 30.1694 20.9812C30.1541 21.5776 30.1694 22.1892 30.1541 22.7855C30.1388 23.443 29.6953 23.9782 29.0378 24.1464C29.0378 23.0302 29.0378 21.9292 29.0378 20.8283Z" fill="#FEFEFE"/>
<path d="M24.1446 26.4554C24.1293 26.8835 24.221 26.8529 23.7623 26.8223C22.5084 26.7459 21.5145 25.9966 21.224 24.7122C21.1628 24.4675 21.1628 24.2229 21.1628 23.9782C21.1628 23.8406 21.224 23.81 21.3463 23.81C21.9274 23.7948 21.9121 23.7948 21.9427 24.3605C21.9885 25.1251 22.5237 25.7979 23.3647 26.0272C23.5482 26.0731 23.7317 26.0884 23.9152 26.0731C24.114 26.0578 24.1904 26.119 24.1598 26.3177C24.1293 26.3483 24.1446 26.3942 24.1446 26.4554Z" fill="#F8AF3C"/>
<path d="M21.9274 22.709C21.9274 23.1372 21.9885 23.076 21.5604 23.076C21.1628 23.076 21.1628 23.076 21.1628 22.6937C21.1628 22.3115 21.1628 22.3115 21.5451 22.3115C21.9274 22.3115 21.9274 22.3115 21.9274 22.709Z" fill="#F8AF3C"/>
<path d="M16.3159 14.8648C16.9887 14.8648 17.6462 14.8648 18.319 14.8648C18.5025 14.8648 18.533 14.926 18.533 15.0789C18.533 18.1218 18.533 21.1493 18.533 24.1922C17.7991 24.1922 17.0651 24.1922 16.3159 24.1922C16.3159 21.1646 16.3159 18.1523 16.3159 15.1248C16.3006 15.033 16.3159 14.9413 16.3159 14.8648Z" fill="#2BAAE2"/>
<path d="M14.0527 18.5806C14.0527 19.2075 13.5328 19.7121 12.9365 19.7121C12.3248 19.6968 11.8202 19.1922 11.8049 18.5806C11.8049 17.9689 12.3095 17.4643 12.9365 17.4643C13.5634 17.449 14.0527 17.9536 14.0527 18.5806Z" fill="#2BAAE2"/>
<path d="M12.9365 21.5775C12.4931 21.5775 12.0497 21.5775 11.6215 21.5775C11.4839 21.5775 11.438 21.5469 11.438 21.394C11.438 20.813 11.4227 20.813 12.0038 20.813C12.753 20.813 13.5023 20.813 14.2668 20.813C14.4044 20.813 14.4656 20.8436 14.4503 20.9812C14.435 21.1647 14.5268 21.4093 14.4044 21.5317C14.2974 21.6387 14.0528 21.5622 13.8693 21.5622C13.5482 21.5775 13.2423 21.5775 12.9365 21.5775Z" fill="#0971B7"/>
<path d="M12.9519 22.3115C13.38 22.3115 13.8234 22.3115 14.2516 22.3115C14.3892 22.3115 14.4657 22.342 14.4504 22.495C14.4351 22.6784 14.5115 22.9078 14.4198 23.0301C14.328 23.1525 14.0681 23.076 13.8999 23.076C13.1507 23.076 12.4167 23.076 11.6674 23.076C11.5145 23.076 11.4534 23.0454 11.4534 22.8772C11.4534 22.3115 11.4534 22.3115 12.0038 22.3115C12.3097 22.3115 12.6308 22.3115 12.9519 22.3115Z" fill="#0971B7"/>
</svg>
