<svg width="38" height="40" viewBox="0 0 38 40" fill="none" xmlns="http://www.w3.org/2000/svg">
<path d="M24.5265 8.89148C26.2238 8.89148 27.9211 8.89148 29.6184 8.89148C29.7407 8.89148 29.7713 8.92206 29.7713 9.04439C29.7713 16.2311 29.7713 23.4178 29.7713 30.5892C29.7713 30.7115 29.7407 30.7421 29.6184 30.7421C22.4317 30.7421 15.245 30.7421 8.07356 30.7421C7.95124 30.7421 7.92065 30.7115 7.92065 30.5892C7.92065 23.4025 7.92065 16.2158 7.92065 9.04439C7.92065 8.89148 7.98182 8.89148 8.08885 8.89148C13.0737 8.89148 18.0585 8.89148 23.0433 8.89148C23.0433 8.98322 22.9668 8.98322 22.9057 8.98322C21.4072 9.24317 20.4744 10.1912 19.7711 11.445C19.7099 11.5674 19.664 11.6897 19.5417 11.7662C19.3735 11.8273 19.2512 11.9344 19.1747 12.0873C18.9148 12.5307 18.6242 12.9436 18.349 13.3564C18.3031 13.4176 18.2726 13.5093 18.1808 13.494C18.0738 13.4787 18.0738 13.3717 18.0432 13.2952C17.8903 12.8977 17.7527 12.4848 17.5386 12.1026C17.401 11.8579 17.1869 11.812 17.0187 11.9802C16.8658 12.1026 16.8964 12.2708 16.9575 12.4237C17.1716 12.913 17.3704 13.4176 17.5386 13.9222C17.5845 14.0904 17.6456 14.2586 17.6915 14.4268C17.7068 14.5032 17.7374 14.595 17.7068 14.6714C17.5998 14.7937 17.4774 14.7479 17.3551 14.7326C16.7282 14.6255 16.1013 14.4573 15.4743 14.3503C13.9452 14.1515 12.6149 14.5338 11.4528 15.5124C10.2907 16.491 9.60265 17.7449 9.28154 19.2281C9.15921 19.8091 9.08276 20.3902 9.08276 20.9865C9.08276 21.8428 9.23567 22.6685 9.48032 23.4789C9.95434 25.0845 10.7036 26.5677 11.6975 27.9133C12.3244 28.7696 13.0431 29.5188 13.9452 30.0999C14.7709 30.635 15.6578 30.7574 16.5906 30.5892C16.7893 30.5586 17.0034 30.5127 17.1869 30.4516C18.0126 30.1916 18.823 30.2222 19.6334 30.4516C20.0769 30.5739 20.5356 30.6351 20.9943 30.6656C21.7742 30.6962 22.4317 30.4057 23.0586 29.9928C23.3491 29.7941 23.6243 29.5647 23.8843 29.32C24.6335 28.5708 25.291 27.7451 25.8415 26.8276C26.7131 25.3444 27.3706 23.7695 27.6305 22.0569C27.7835 21.0324 27.707 20.0079 27.4623 18.9987C27.2024 17.9589 26.7437 17.0262 26.0403 16.2158C25.2299 15.283 24.236 14.6408 23.0127 14.4115C22.3858 14.2891 21.7589 14.3503 21.1319 14.4421C20.5356 14.5338 19.9393 14.7173 19.3429 14.7937C19.083 14.809 18.823 14.8855 18.5631 14.8396C18.4102 14.7173 18.3949 14.595 18.4866 14.4115C18.5631 14.2739 18.6548 14.1362 18.7466 13.9986C19.0524 13.5399 19.3429 13.0965 19.6487 12.6377C19.6946 12.5613 19.7558 12.4695 19.8475 12.4237C19.9698 12.3778 20.0616 12.439 20.1686 12.4848C20.8261 12.8059 21.453 13.2035 22.1258 13.5246C22.7528 13.8304 23.4103 14.0445 24.1289 14.0445C25.1228 14.0445 25.9638 13.6622 26.6825 13.0047C27.6305 12.1331 28.1657 11.0169 28.5021 9.79364C28.548 9.65602 28.5786 9.50311 28.6092 9.3655C28.6244 9.31962 28.6244 9.27375 28.548 9.28904C28.1199 9.50311 27.6764 9.53369 27.2177 9.45724C26.3767 9.33491 25.5357 9.12084 24.6947 9.01381C24.6182 8.98322 24.5265 8.99852 24.5265 8.89148Z" fill="#FEFEFE"/>
<path d="M19.5417 11.7355C19.7864 11.2921 20.0311 10.8486 20.3675 10.4511C21.0555 9.62535 21.8812 9.05959 22.9669 8.92197C22.9975 8.92197 23.0128 8.89139 23.0281 8.8761C23.1045 8.8761 23.1657 8.8761 23.2421 8.8761C23.3339 8.90668 23.4103 8.90668 23.5021 8.8761C23.7314 8.8761 23.9608 8.8761 24.1902 8.8761C24.2819 8.90668 24.3584 8.90668 24.4501 8.8761C24.4807 8.8761 24.5113 8.8761 24.5419 8.8761C24.8324 8.96784 25.1382 8.96784 25.4287 9.02901C26.0251 9.15133 26.6214 9.25837 27.2177 9.35012C27.6918 9.42657 28.1658 9.39599 28.5939 9.16662C28.6245 9.27366 28.6245 9.27366 28.5328 9.36541C28.2117 9.7171 27.8447 10.0076 27.4624 10.2676C26.8049 10.711 26.0862 11.0321 25.2911 11.1544C25.0617 11.2156 24.863 11.2462 24.6642 11.2462C23.2115 11.2462 21.8201 11.6284 20.4439 12.0413C20.291 12.0872 20.1534 12.1636 20.0005 12.1483C19.8629 11.9954 19.7405 11.8119 19.5417 11.7355Z" fill="#A4C960"/>
<path d="M23.5019 8.89148C23.4101 8.95264 23.3337 8.95264 23.2419 8.89148C23.3337 8.89148 23.4101 8.89148 23.5019 8.89148Z" fill="#B3D178"/>
<path d="M24.4345 8.89148C24.3428 8.96793 24.2663 8.95264 24.1746 8.89148C24.2663 8.89148 24.358 8.89148 24.4345 8.89148Z" fill="#C4DB95"/>
<path d="M19.3581 14.7173C20.2602 14.5797 21.1471 14.2892 22.0798 14.2586C23.3337 14.228 24.4346 14.6562 25.3827 15.4513C26.6365 16.5064 27.3399 17.8825 27.6304 19.4881C27.8904 20.8795 27.7527 22.2404 27.3399 23.586C26.7283 25.5127 25.7955 27.2711 24.4499 28.7849C24.2817 28.9684 24.0982 29.1366 23.93 29.3201C23.242 29.4424 22.5539 29.5189 21.8658 29.5647C21.4071 29.5953 20.9483 29.6106 20.4896 29.5953C19.2816 29.5494 18.1042 29.4118 16.988 28.9072C15.78 28.3568 14.8626 27.4852 14.2051 26.3078C13.6546 25.2986 13.4558 24.2282 13.4405 23.0967C13.4252 22.1793 13.4558 21.2771 13.7005 20.3902C14.1286 18.7847 14.939 17.4544 16.3152 16.4758C16.514 16.3382 16.6669 16.3076 16.8963 16.4452C17.2479 16.6746 17.6455 16.7204 18.0584 16.7663C18.2877 16.7663 18.5171 16.7663 18.7617 16.7663C19.1593 16.7204 19.5569 16.644 19.9238 16.4452C20.0309 16.384 20.1532 16.3229 20.2144 16.2158C20.2449 16.17 20.2908 16.1088 20.2602 16.0476C20.2297 15.9865 20.1685 16.0018 20.1073 16.0018C19.8474 16.0018 19.5874 16.0018 19.3275 16.0018C19.0217 16.0018 18.9605 15.9253 19.0064 15.6348C19.0523 15.329 19.2052 15.0537 19.4192 14.8397C19.4651 14.7632 19.3887 14.7632 19.3581 14.7173Z" fill="#E84B4C"/>
<path d="M18.0124 16.858C17.676 16.7968 17.3243 16.7663 17.0185 16.5981C16.9879 16.5828 16.942 16.5828 16.9267 16.5522C16.6821 16.2922 16.4833 16.4299 16.2692 16.5981C15.5047 17.1638 14.9083 17.8672 14.4343 18.6929C13.945 19.5645 13.6698 20.4972 13.5627 21.4911C13.471 22.2404 13.4863 23.0049 13.5474 23.7542C13.6086 24.6869 13.8533 25.5432 14.2967 26.3536C14.5261 26.7665 14.8166 27.1487 15.1377 27.5004C15.627 28.0356 16.2081 28.4637 16.8503 28.7848C17.4925 29.0907 18.1653 29.2742 18.8687 29.3812C19.6944 29.5035 20.5201 29.5647 21.3611 29.5341C22.0492 29.5035 22.7372 29.4576 23.4253 29.3506C23.5935 29.32 23.7617 29.2436 23.9452 29.32C23.2571 29.9775 22.5079 30.5127 21.5598 30.6656C20.9329 30.7727 20.306 30.6809 19.6944 30.4974C18.8381 30.2528 17.9971 30.2681 17.1408 30.4974C16.1469 30.7727 15.153 30.8185 14.2202 30.2986C13.6545 29.9928 13.1499 29.5953 12.7065 29.1365C10.8563 27.2558 9.67887 25.008 9.17427 22.4239C8.792 20.5431 9.08252 18.7235 10.0611 17.0568C10.8257 15.7723 11.896 14.8396 13.364 14.4115C14.1438 14.1821 14.9389 14.2127 15.7187 14.3656C16.2692 14.4726 16.8197 14.595 17.3854 14.702C17.4925 14.7173 17.5995 14.7479 17.6913 14.702C17.7677 14.7326 17.783 14.809 17.783 14.8702C17.9206 15.4818 18.0124 16.0935 18.043 16.7204C18.043 16.7663 18.043 16.8121 18.0124 16.858Z" fill="#E13C3C"/>
<path d="M19.9697 12.1331C20.9483 11.8119 21.9269 11.5214 22.9361 11.3532C23.3949 11.2768 23.8689 11.2003 24.3429 11.2003C25.7191 11.2156 26.8965 10.7263 27.9362 9.85472C28.1503 9.68652 28.3338 9.48774 28.5173 9.30425C28.5479 9.27366 28.6243 9.25837 28.5784 9.19721C28.6549 9.13605 28.7008 9.13605 28.6702 9.24308C28.6243 9.39599 28.5937 9.56419 28.5632 9.7171C28.2879 10.7416 27.8904 11.7049 27.2023 12.5153C26.3766 13.5092 25.3368 14.1209 24.0065 14.075C23.3337 14.0597 22.7068 13.8303 22.0951 13.5551C21.4376 13.2493 20.826 12.8517 20.1685 12.5153C20.0615 12.4694 19.9697 12.393 19.8474 12.4236C19.8321 12.3012 19.878 12.2095 19.9697 12.1331Z" fill="#C7DB8E"/>
<path d="M19.97 12.1331C19.9547 12.2402 19.8936 12.3319 19.8477 12.4237C19.4196 13.0812 18.9914 13.7387 18.548 14.3962C18.4562 14.5338 18.4715 14.6408 18.5174 14.7784C18.5633 14.8243 18.5939 14.8855 18.6091 14.9619C18.7315 15.5124 18.7926 16.0629 18.8232 16.6286C18.8232 16.7204 18.8232 16.7968 18.7621 16.8733C18.5021 16.8733 18.2575 16.8733 17.9975 16.8733C17.9211 16.1546 17.8446 15.4207 17.6764 14.7173C17.4776 13.9527 17.2177 13.2188 16.8966 12.5001C16.7742 12.2249 16.8354 11.9955 17.0495 11.9038C17.2636 11.7967 17.4776 11.9038 17.6152 12.1637C17.8293 12.5919 17.9975 13.0506 18.1504 13.494C18.2422 13.4787 18.2575 13.4023 18.288 13.3411C18.5786 12.8977 18.8691 12.4542 19.1596 12.0108C19.2514 11.8732 19.3431 11.7661 19.5266 11.7509C19.8171 11.7661 19.8783 11.8426 19.97 12.1331Z" fill="#B1571A"/>
<path d="M18.777 16.8578C18.777 16.1545 18.6547 15.4664 18.5171 14.7783C18.8076 14.8089 19.0829 14.7324 19.3581 14.7324C19.404 14.7324 19.4498 14.7477 19.5263 14.7477C19.3581 14.9924 19.1593 15.2064 19.0829 15.497C19.0676 15.5428 19.0523 15.5887 19.037 15.6346C18.9911 15.9404 19.0217 15.971 19.3275 15.971C19.6027 15.971 19.878 15.971 20.1532 15.971C20.3673 15.971 20.3979 16.0016 20.2908 16.2156C20.1685 16.4603 19.9238 16.552 19.6945 16.6591C19.404 16.7661 19.0829 16.812 18.777 16.8578Z" fill="#E13C3C"/>
<path d="M23.5017 19.2127C23.5323 18.7387 23.6087 18.2188 24.0063 17.8212C24.4039 17.4236 24.9696 17.4848 25.3519 17.8977C25.8106 18.4023 25.9635 19.0139 25.9635 19.6561C25.9635 20.1148 25.8565 20.5583 25.566 20.9252C25.1225 21.4757 24.4803 21.4298 24.0216 20.8641C23.6546 20.4054 23.5017 19.8702 23.5017 19.2127Z" fill="#EE7E80"/>
</svg>
