<svg width="38" height="39" viewBox="0 0 38 39" fill="none" xmlns="http://www.w3.org/2000/svg">
<path d="M18.933 36.3005C28.3069 36.3005 35.9059 28.7015 35.9059 19.3277C35.9059 9.95385 28.3069 2.35486 18.933 2.35486C9.5592 2.35486 1.96021 9.95385 1.96021 19.3277C1.96021 28.7015 9.5592 36.3005 18.933 36.3005Z" fill="white"/>
<path d="M8.5354 26.8814V23.1045C8.5354 22.6458 8.7036 22.2635 9.02471 21.9424C9.34582 21.6213 9.74338 21.4531 10.1868 21.4531H13.5202C13.7954 21.4531 14.0401 21.5143 14.2848 21.6519C14.5294 21.7895 14.7435 21.973 14.9117 22.2024C15.3704 22.8599 15.9515 23.3798 16.6548 23.7315C17.3582 24.0831 18.1228 24.2819 18.9179 24.2819C19.7283 24.2819 20.4775 24.0984 21.1809 23.7315C21.8843 23.3645 22.4806 22.8599 22.9547 22.2024C23.1229 21.973 23.3369 21.7742 23.5663 21.6519C23.7957 21.5143 24.0556 21.4531 24.3155 21.4531H27.6489C28.1077 21.4531 28.4899 21.6213 28.8111 21.9424C29.1322 22.2635 29.3004 22.6611 29.3004 23.1045V26.8814H23.1534V24.0679C22.5877 24.5877 21.9302 24.9853 21.2115 25.2758C20.4775 25.5664 19.713 25.704 18.9026 25.704C18.0922 25.704 17.3276 25.5664 16.609 25.2758C15.8903 24.9853 15.2328 24.5877 14.6517 24.0679V26.8814H8.5354ZM18.9332 22.8752C18.3827 22.8752 17.8475 22.7528 17.3429 22.4929C16.8383 22.233 16.4102 21.8813 16.1044 21.4225C15.8597 21.0556 15.5539 20.765 15.2022 20.551C14.8505 20.3369 14.4682 20.184 14.0554 20.1075C14.5141 19.6335 15.2328 19.2665 16.2114 19.0219C17.19 18.7772 18.1075 18.6396 18.9485 18.6396C19.7895 18.6396 20.7222 18.7619 21.7008 19.0219C22.6794 19.2665 23.4134 19.6335 23.8568 20.1075C23.444 20.184 23.0617 20.3369 22.71 20.551C22.3583 20.765 22.0525 21.0556 21.8078 21.4225C21.4867 21.8813 21.0739 22.233 20.5693 22.4929C20.0494 22.7375 19.4989 22.8752 18.9332 22.8752ZM11.3795 19.8017C10.6761 19.8017 10.0645 19.5418 9.5446 19.0372C9.04 18.5326 8.78005 17.9209 8.78005 17.2023C8.78005 16.4836 9.04 15.8567 9.5446 15.3521C10.0492 14.8475 10.6608 14.6028 11.3795 14.6028C12.0982 14.6028 12.7251 14.8475 13.2297 15.3521C13.7343 15.8567 13.9789 16.4683 13.9789 17.2023C13.9789 17.9056 13.7343 18.5173 13.2297 19.0372C12.7098 19.5418 12.0982 19.8017 11.3795 19.8017ZM26.5021 19.8017C25.7988 19.8017 25.1871 19.5418 24.6672 19.0372C24.1626 18.5326 23.9027 17.9209 23.9027 17.2023C23.9027 16.4836 24.1626 15.8567 24.6672 15.3521C25.1718 14.8475 25.7835 14.6028 26.5021 14.6028C27.2208 14.6028 27.8477 14.8475 28.3523 15.3521C28.8569 15.8567 29.1016 16.4683 29.1016 17.2023C29.1016 17.9056 28.8569 18.5173 28.3523 19.0372C27.8324 19.5418 27.2208 19.8017 26.5021 19.8017ZM18.9332 16.9576C18.2298 16.9576 17.6182 16.6977 17.0983 16.1931C16.5937 15.6885 16.3337 15.0768 16.3337 14.3582C16.3337 13.6395 16.5937 13.0126 17.0983 12.508C17.6029 12.0034 18.2145 11.7587 18.9332 11.7587C19.6518 11.7587 20.2788 12.0034 20.7834 12.508C21.288 13.0126 21.5326 13.6242 21.5326 14.3582C21.5326 15.0615 21.288 15.6732 20.7834 16.1931C20.2788 16.713 19.6671 16.9576 18.9332 16.9576Z" fill="#1D1D1B"/>
</svg>
