<svg width="39" height="40" viewBox="0 0 39 40" fill="none" xmlns="http://www.w3.org/2000/svg">
<path d="M26.6298 27.5156C27.165 28.0508 27.7002 28.6013 28.2507 29.1364C28.5718 29.4423 28.8623 29.7787 28.9999 30.2068C28.9999 30.4056 28.9999 30.6044 28.9999 30.8184C28.8623 31.4759 28.48 31.8888 27.7919 31.9805C27.6085 31.9805 27.425 31.9805 27.2415 31.9805C26.7522 31.8429 26.4311 31.4912 26.0794 31.1395C25.5748 30.6197 25.0549 30.1151 24.5503 29.6105C24.535 29.5187 24.6267 29.5034 24.6726 29.4728C25.483 29.0447 26.1099 28.4178 26.5228 27.5921C26.5381 27.5615 26.5534 27.5462 26.584 27.5156C26.5993 27.5003 26.6145 27.5003 26.6298 27.5156Z" fill="#5FC0C7"/>
<path d="M26.6294 27.5158C26.6141 27.5158 26.5988 27.5158 26.5835 27.5158C26.2471 27.7604 25.8495 27.8369 25.452 27.8981C23.9688 28.1121 22.7149 27.6534 21.6598 26.6136C21.2776 26.2467 20.9106 25.8644 20.5436 25.4974C20.4672 25.421 20.3907 25.3598 20.3907 25.2528C20.4824 25.161 20.6048 25.161 20.7118 25.1457C21.4305 24.9622 21.9198 24.5341 22.1186 23.8001C22.3021 23.0815 22.088 22.4698 21.5834 21.9346C21.4764 21.8276 21.3693 21.7206 21.2776 21.6288C21.1094 21.4453 20.9259 21.2771 20.7424 21.0936C20.2684 20.6043 19.7791 20.1303 19.3051 19.6563C19.1521 19.5034 18.9992 19.3352 18.831 19.1823C18.357 18.7083 17.883 18.219 17.3937 17.745C17.2255 17.5615 17.0573 17.3933 16.8738 17.2251C16.5221 16.8734 16.1551 16.5217 15.8035 16.1547C15.7423 16.0935 15.6658 16.0324 15.6353 15.9406C15.6353 15.8489 15.7117 15.7877 15.7576 15.7266C16.201 15.2678 16.6597 14.8244 17.1032 14.381C17.1643 14.3198 17.2102 14.2433 17.3172 14.2739C17.3784 14.3198 17.4396 14.381 17.4854 14.4268C20.2072 17.1486 22.929 19.8704 25.6508 22.5921C26.2471 23.1885 26.6599 23.8766 26.8587 24.687C27.0728 25.5892 26.9963 26.4607 26.6599 27.317C26.6599 27.3782 26.6294 27.4393 26.6294 27.5158Z" fill="#B5DEE3"/>
<path d="M20.4063 25.2374C21.079 25.895 21.6754 26.6442 22.4552 27.1794C23.2503 27.7146 24.1525 27.9439 25.1158 27.8828C25.6204 27.8522 26.1097 27.6993 26.5837 27.5158C26.3085 28.1886 25.8498 28.7238 25.2687 29.1519C25.0394 29.3201 24.7947 29.4577 24.5501 29.6106C24.1219 29.7482 23.7091 29.9011 23.2503 29.947C22.2717 30.0693 21.3696 29.8706 20.5133 29.366C20.1922 29.1825 19.9169 28.9531 19.657 28.6932C16.9046 25.9408 14.1523 23.1885 11.3999 20.4361C11.3694 20.4055 11.3235 20.3597 11.2929 20.3138C11.2623 20.2221 11.3388 20.1762 11.3847 20.115C11.8434 19.641 12.3174 19.1823 12.7761 18.7235C12.8373 18.6624 12.8832 18.6012 12.9749 18.6165C13.0819 18.6624 13.1431 18.7541 13.2196 18.8306C15.085 20.6961 16.9658 22.5768 18.8313 24.4423C19.2289 24.8399 19.657 25.1151 20.2228 25.1763C20.2839 25.1763 20.3604 25.1763 20.4063 25.2374Z" fill="#87CCD6"/>
<path d="M17.3328 14.2585C16.7517 14.7937 16.2012 15.3595 15.6508 15.9252C15.6355 16.0323 15.5437 16.0781 15.4826 16.1393C15.1003 16.5369 14.7027 16.9191 14.3205 17.3014C14.1523 17.4543 14.0758 17.699 13.8465 17.7754C13.7241 17.806 13.6171 17.8825 13.5101 17.9131C12.7455 18.1883 12.0574 18.0354 11.4917 17.4696C10.9412 16.9191 10.773 16.2311 11.0482 15.4665C11.0941 15.3442 11.1553 15.2372 11.1706 15.1148C11.1858 15.0384 11.2317 14.9772 11.2929 14.916C11.721 14.5644 12.088 14.1515 12.5009 13.7539C12.5467 13.7081 12.5926 13.6622 12.6538 13.6469C12.8831 13.4328 13.1125 13.2035 13.3419 12.9894C13.8923 12.4389 14.4275 11.8885 14.9933 11.3533C15.5743 10.8028 16.2624 10.7264 16.9811 10.9863C17.6692 11.2462 18.0973 11.919 18.1126 12.653C18.1279 13.2035 17.9291 13.6622 17.5468 14.0445C17.4551 14.1209 17.4092 14.1974 17.3328 14.2585Z" fill="#87CDD7"/>
<path d="M7.53129 12.6378C7.74536 12.4084 7.95943 12.1943 8.1735 11.9803C8.8463 11.3227 9.48852 10.6347 10.1919 10.0077C10.5742 9.67134 11.3693 9.64075 11.7669 9.97715C12.1185 10.2524 12.2714 10.6347 12.2714 11.0934C12.302 12.1026 12.0421 13.02 11.5222 13.8916C11.5222 13.9069 11.4916 13.9222 11.4763 13.9375C11.2317 14.1668 10.9106 14.2586 10.6047 14.3809C9.91666 14.6409 9.21328 14.702 8.49461 14.6409C7.47013 14.5644 7.0114 13.3106 7.53129 12.6378Z" fill="#F3F6FB"/>
<path d="M11.2012 15.0996C11.2777 15.1761 11.2012 15.2219 11.1707 15.2831C10.5896 16.4299 11.3542 17.8061 12.5621 17.9437C12.9444 17.9896 13.2808 17.9131 13.6172 17.7908C13.6937 17.7602 13.7701 17.6991 13.8619 17.7143C13.8619 17.7449 13.8619 17.7755 13.8466 17.8061C13.556 18.0966 13.3114 18.4177 12.975 18.6471C12.3939 19.1976 11.8282 19.748 11.3083 20.3291C10.9872 20.6349 10.6661 20.9101 10.2226 21.0325C9.15227 21.3077 8.05133 20.5584 7.91372 19.4728C7.83726 18.8459 8.03604 18.326 8.47948 17.8825C9.21344 17.1486 9.93211 16.4146 10.6661 15.6807C10.8037 15.436 10.9719 15.2372 11.2012 15.0996Z" fill="#5FC0C7"/>
<path d="M9.53442 14.4572C9.82495 14.1973 10.1613 13.9985 10.4366 13.7233C10.7883 13.3563 11.1247 13.0199 11.3846 12.5917C11.4152 12.5612 11.4458 12.5306 11.4764 12.5C11.8739 12.867 12.2715 13.2645 12.6385 13.6621C12.2562 14.0902 11.8433 14.4878 11.4152 14.8854C11.354 14.9465 11.2623 15.0077 11.2011 15.0994C11.0176 15.2829 10.8341 15.4664 10.6507 15.6499C10.6507 15.5429 10.5589 15.497 10.4977 15.4358C10.1766 15.1147 9.85553 14.7783 9.53442 14.4572Z" fill="#D3DBF0"/>
<path d="M12.9749 18.6316C13.2807 18.3258 13.5712 18.02 13.877 17.6989C14.0605 17.5919 14.137 17.3778 14.3204 17.2708C14.4734 17.2708 14.5498 17.3931 14.6416 17.4848C16.5223 19.3656 18.4184 21.2464 20.2839 23.1424C20.7579 23.6317 21.3084 23.8458 21.9812 23.7694C22.0423 23.7541 22.1188 23.7235 22.1799 23.7846C22.0729 24.4269 21.4307 25.0538 20.7273 25.1761C20.6203 25.1914 20.5132 25.2067 20.4062 25.222C19.8099 25.2067 19.3206 24.9926 18.8924 24.5798C16.9658 22.6531 15.0391 20.7265 13.1125 18.7998C13.0666 18.754 13.0207 18.6928 12.9749 18.6316Z" fill="#E9EEF9"/>
<path d="M22.18 23.8C21.492 23.9377 20.8803 23.8306 20.3757 23.3107C18.4491 21.3841 16.5224 19.4574 14.5958 17.5308C14.504 17.4391 14.4123 17.3626 14.3206 17.2861C14.7487 16.8121 15.2074 16.3687 15.6662 15.9406C16.0943 16.3381 16.5224 16.7663 16.92 17.1944C16.9506 17.3014 16.8435 17.3626 16.7977 17.4238C16.5683 17.6684 16.3237 17.8978 16.0943 18.1271C15.972 18.2495 15.9108 18.3871 16.0178 18.54C16.1249 18.6929 16.3084 18.7082 16.4766 18.54C16.7212 18.3106 16.9506 18.066 17.1952 17.8213C17.2564 17.7602 17.3023 17.6684 17.4246 17.6837C17.9139 18.1424 18.4032 18.6164 18.8619 19.121C18.8314 19.2587 18.709 19.3351 18.6173 19.4269C18.4185 19.6409 18.2044 19.8397 18.0056 20.0538C17.8833 20.1914 17.868 20.3902 17.9751 20.4972C18.0821 20.6043 18.2809 20.589 18.4185 20.4666C18.6632 20.2373 18.8925 19.9926 19.1219 19.7633C19.183 19.7021 19.2442 19.6256 19.336 19.5951C19.8405 20.0538 20.3146 20.5431 20.7733 21.0324C20.8039 21.1394 20.6968 21.2006 20.651 21.2618C20.4216 21.5064 20.1769 21.7358 19.9476 21.9651C19.8253 22.0875 19.7641 22.2251 19.8711 22.378C19.9782 22.5309 20.1617 22.5462 20.3299 22.378C20.5745 22.1486 20.8039 21.904 21.0485 21.6593C21.1097 21.5982 21.1556 21.5064 21.2779 21.537C21.706 21.8887 22.0577 22.2863 22.18 22.8367C22.2718 23.1731 22.2718 23.4942 22.18 23.8Z" fill="#F3F6FB"/>
<path d="M17.4244 17.6991C17.1339 17.9896 16.8434 18.2648 16.5528 18.5553C16.3388 18.7541 16.1553 18.7847 15.9871 18.6165C15.8342 18.4636 15.8648 18.2801 16.0635 18.066C16.3541 17.7755 16.6293 17.485 16.9198 17.1945C17.1033 17.3474 17.2868 17.5156 17.4244 17.6991Z" fill="#D4DBF0"/>
<path d="M21.2931 21.5677C21.0026 21.8582 20.712 22.1335 20.4215 22.424C20.2074 22.6228 20.0239 22.6534 19.8557 22.4852C19.7028 22.3323 19.7334 22.1488 19.9322 21.9347C20.2227 21.6442 20.498 21.3536 20.7885 21.0631C20.972 21.2007 21.1402 21.3689 21.2931 21.5677Z" fill="#D4DBF0"/>
<path d="M19.3361 19.6105C19.0303 19.9316 18.7245 20.2374 18.4187 20.5432C18.2964 20.6656 18.0517 20.6503 17.9294 20.5432C17.8071 20.4209 17.8071 20.1915 17.9294 20.0539C18.2352 19.7481 18.5563 19.4423 18.8621 19.1365C19.0456 19.2894 19.1985 19.4423 19.3361 19.6105Z" fill="#D4DBF0"/>
<path d="M24.4277 26.7358C24.5348 26.7206 24.6265 26.7817 24.703 26.8888C24.7183 26.904 24.7794 26.9958 24.7489 27.0875C24.7336 27.1334 24.703 27.164 24.6418 27.2099C24.6112 27.2404 24.3819 27.4239 24.2443 27.6533C24.229 27.6839 24.2137 27.7145 24.1678 27.745C24.0608 27.8062 23.9231 27.7298 23.9079 27.7298C23.7855 27.6839 23.7244 27.5768 23.7244 27.4545C23.7244 27.2404 24.1831 26.7511 24.4277 26.7358Z" fill="#4A5762"/>
<path d="M22.4857 26.996C22.3328 27.103 22.1646 27.2253 21.9964 27.3935C21.7517 27.6229 21.5835 27.8523 21.4612 28.051" fill="#4A5762"/>
<path d="M22.4857 26.996C22.3328 27.103 22.1646 27.2253 21.9964 27.3935C21.7517 27.6229 21.5835 27.8523 21.4612 28.051" stroke="#4A5762" stroke-width="0.382271" stroke-miterlimit="10" stroke-linecap="round"/>
<path d="M25.0697 24.7327C24.9168 24.8244 24.7486 24.9467 24.5651 25.1149C24.3205 25.3443 24.137 25.5584 24.0146 25.7572" fill="#4A5762"/>
<path d="M25.0697 24.7327C24.9168 24.8244 24.7486 24.9467 24.5651 25.1149C24.3205 25.3443 24.137 25.5584 24.0146 25.7572" stroke="#4A5762" stroke-width="0.382271" stroke-miterlimit="10" stroke-linecap="round"/>
<path d="M25.238 12.2401C27.18 10.6346 27.7152 10.4511 27.8681 10.5887C27.9751 10.6805 27.8834 10.971 27.0729 12.8518C26.4154 14.335 26.2625 14.6408 26.3848 14.7631C26.5378 14.916 27.2106 14.7172 29.6418 12.867" stroke="#4A5762" stroke-width="0.764542" stroke-miterlimit="10" stroke-linecap="round"/>
<path d="M25.2534 19.2893C26.4767 18.2801 26.8131 18.1578 26.9048 18.2495C26.966 18.3107 26.9201 18.4789 26.4002 19.6716C25.9874 20.6196 25.8956 20.8031 25.9721 20.8796C26.0791 20.9866 26.492 20.849 28.0364 19.6869" stroke="#4A5762" stroke-width="0.764542" stroke-miterlimit="10" stroke-linecap="round"/>
</svg>
