<svg width="39" height="40" viewBox="0 0 39 40" fill="none" xmlns="http://www.w3.org/2000/svg">
<path d="M16.7292 3.67737C18.7017 7.54595 20.4908 11.0323 22.4021 14.7326C21.2247 14.7326 20.2614 14.7326 19.1299 14.7326C19.0993 15.436 19.0534 15.9865 19.0534 16.537C19.0534 21.2618 18.9923 25.9867 19.084 30.7116C19.1146 32.0725 18.5335 32.4089 17.3714 32.4853C11.0104 32.8982 6.23969 26.5525 8.34983 20.4208C8.62506 19.6257 9.02262 18.8765 9.3896 18.1272C11.7444 13.4329 14.1451 8.72334 16.7292 3.67737Z" fill="#E84B4C"/>
<path d="M29.4971 35.9564C26.5613 35.9564 23.7325 35.9564 20.7966 35.9564C20.7966 29.4731 20.7966 23.0509 20.7966 16.5065C23.6713 16.5065 26.5307 16.5065 29.4971 16.5065C29.4971 22.9286 29.4971 29.3661 29.4971 35.9564ZM27.7998 34.3356C27.7998 28.8768 27.7998 23.5403 27.7998 18.1273C25.9802 18.1273 24.2676 18.1273 22.4786 18.1273C22.4786 18.9071 22.4786 19.5952 22.4786 19.8857C23.1361 20.4974 23.5184 20.8644 23.9007 21.2313C23.4572 21.6442 22.9985 22.0723 22.4786 22.5616C22.4786 23.3415 22.4786 24.3201 22.4786 24.9929C23.3196 25.9715 25.0934 24.473 25.0934 26.2467C25.0781 28.0052 23.2126 26.5067 22.448 27.3935C22.448 28.2957 22.448 29.2743 22.448 29.8554C23.0903 30.4211 23.5031 30.7728 23.9007 31.1245C23.4878 31.5832 23.0597 32.042 22.4939 32.6536C22.4939 32.99 22.4939 33.6475 22.4939 34.3509C24.2677 34.3356 25.9344 34.3356 27.7998 34.3356Z" fill="#E13C3C"/>
</svg>
