<svg width="113" height="92" viewBox="0 0 113 92" fill="none" xmlns="http://www.w3.org/2000/svg">
<g clip-path="url(#clip0_49_8)">
<path d="M56.02 91.5C40.63 91.5 25.24 91.44 9.85 91.54C4.8 91.57 -4.88292e-06 87.8 -4.88292e-06 81.7C-4.88292e-06 71.85 -4.88292e-06 62.01 -4.88292e-06 52.16C-4.88292e-06 43.26 -0.0200049 34.36 0.0199951 25.46C0.0399951 20.59 2.83 16.96 7.49 15.93C9.24 15.54 11.11 15.64 12.93 15.63C18.63 15.6 24.34 15.62 30.04 15.62C34.51 15.62 38.98 15.61 43.45 15.64C44.08 15.64 44.33 15.45 44.5 14.85C45.25 12.28 46.09 9.72999 46.82 7.14999C48.08 2.76999 51.56 0.039995 56.12 0.019995C62.68 -0.010005 69.25 0.00999498 75.81 0.019995C80.49 0.019995 83.97 2.80999 85.35 7.59999C86.05 10.03 86.82 12.45 87.49 14.89C87.66 15.51 87.91 15.7 88.53 15.69C93.11 15.65 97.69 15.59 102.27 15.64C108.1 15.7 112.09 19.91 112.08 25.75C112.06 44.39 112.06 63.02 112.08 81.66C112.08 87.26 108.02 91.51 102.52 91.52C87.02 91.53 71.52 91.52 56.02 91.52V91.5ZM66.01 27.91C52.22 27.85 40.76 39.1 40.75 52.99C40.75 67.02 51.79 78.2 65.79 78.25C80.2 78.3 90.46 67.01 91.05 54.35C91.74 39.7 80.14 28.02 66 27.91H66.01Z" fill="white"/>
<path d="M13.62 12.73C13.53 10.91 13.46 9.20998 14.81 7.83998C15.61 7.02998 16.56 6.55998 17.72 6.56998C20.82 6.56998 23.91 6.56998 27.01 6.58998C29.08 6.60998 30.78 8.28998 30.89 10.38C30.93 11.14 30.89 11.9 30.89 12.74H13.62V12.73Z" fill="white"/>
<path d="M81.64 53.12C81.64 61.79 74.71 68.8 66.04 68.83C57.32 68.86 50.27 62.1 50.17 53.09C50.08 44.39 57.37 37.29 66.05 37.38C74.73 37.46 81.64 44.44 81.64 53.12ZM77.48 50.57C77.48 50.49 77.51 50.26 77.45 50.06C76.04 45.53 73.12 42.38 68.59 40.96C66.04 40.16 64.64 41.72 65.34 44.3C65.39 44.47 65.42 44.66 65.49 44.82C66.97 48.35 69.41 50.96 72.92 52.52C73.57 52.81 74.3 52.96 75.01 53.03C76.56 53.17 77.48 52.27 77.49 50.57H77.48Z" fill="white"/>
</g>
<defs>
<clipPath id="clip0_49_8">
<rect width="112.08" height="91.54" fill="white"/>
</clipPath>
</defs>
</svg>
