<?xml version="1.0" encoding="UTF-8"?>
<svg id="Capa_2" data-name="Capa 2" xmlns="http://www.w3.org/2000/svg" viewBox="0 0 122.32 121.23">
  <defs>
    <style>
      .cls-1 {
        fill: #fff;
      }
    </style>
  </defs>
  <g id="pantalla_1" data-name="pantalla 1">
    <path class="cls-1" d="m23.44,87.42c-4.27-.26-8.17-.14-11.92-.81C4.69,85.39.03,79.46.02,72.52c-.03-19.33-.03-38.66,0-58C.04,6.4,6.42.02,14.55.02c31.12-.02,62.24-.02,93.36,0,7.94,0,14.37,6.43,14.38,14.36.04,19.14.03,38.29.01,57.43,0,8.95-6.29,15.3-15.26,15.33-14.15.05-28.29.05-42.44-.03-1.85,0-3.12.55-4.41,1.85-9.95,10.05-19.99,20.02-29.97,30.04-1.37,1.37-2.69,2.86-4.84,1.93-2.17-.93-1.95-2.99-1.95-4.88,0-8.49,0-16.97,0-25.46,0-1.02,0-2.05,0-3.17Zm4.84,26.88c10.17-10.2,19.79-19.76,29.29-29.44,1.79-1.82,3.61-2.63,6.18-2.61,14.33.11,28.67.08,43.01.04,6.46-.02,10.91-3.95,10.94-10.02.1-19.15.09-38.29,0-57.44-.03-5.87-4.38-10.03-10.27-10.23-2.07-.07-4.15-.02-6.22-.02-28.48,0-56.97-.01-85.45,0-6.55,0-11.1,4.04-11.13,10.23-.1,19.15-.1,38.29,0,57.44.03,5.77,4.26,9.81,10.08,10.01,3.01.1,6.04.02,9.05.03,4,.01,4.51.54,4.52,4.59,0,8.85,0,17.69,0,27.4Z"/>
  </g>
</svg>