<?xml version="1.0" encoding="UTF-8"?>
<svg id="Capa_2" data-name="Capa 2" xmlns="http://www.w3.org/2000/svg" viewBox="0 0 129.41 112.82">
  <defs>
    <style>
      .cls-1 {
        fill: none;
        stroke: #fff;
        stroke-miterlimit: 10;
        stroke-width: 3.19px;
      }
    </style>
  </defs>
  <g id="pantalla_1" data-name="pantalla 1">
    <path class="cls-1" d="m1.94,111.11c3.51-18.99,9.24-36.89,20.96-52.42,10.82-14.34,24.97-23.84,42.35-28.16,4.36-1.08,5.51-2.85,5.26-7.07-.38-6.31-.1-12.65-.1-20.02,19.19,16.24,37.69,31.9,56.53,47.85-18.66,15.8-37.1,31.42-56.53,47.87,0-7.45-.21-14.02.08-20.57.16-3.67-1.08-4.27-4.53-4.16-25.17.78-43.54,13.67-58.81,32.35-1.36,1.67-2.18,4.15-5.22,4.33Z"/>
  </g>
</svg>