<svg width="94" height="88" viewBox="0 0 94 88" fill="none" xmlns="http://www.w3.org/2000/svg">
<path fill-rule="evenodd" clip-rule="evenodd" d="M52.0827 84.8315C52.8227 84.0915 53.2827 80.4615 53.2827 75.3515C53.2827 68.0315 53.7427 65.9115 57.2827 57.0315L61.2827 46.9915L61.2627 26.7615C61.2627 15.6315 60.9127 6.03153 60.5127 5.43153C58.5827 2.54153 54.9227 2.03152 36.0927 2.05152C22.5327 2.05152 16.0327 2.44152 14.2727 3.33152C10.8827 5.04152 8.9927 9.17152 10.1727 12.2615C10.9027 14.1815 10.6927 14.9115 9.1427 15.8815C6.3527 17.6215 5.1127 21.4915 6.3227 24.6715C7.0727 26.6415 6.9727 27.7215 5.9527 28.9215C3.7527 31.5015 3.25269 33.8615 4.3327 36.6815C5.1227 38.7515 4.9727 39.7115 3.6427 41.1815C1.2627 43.8115 1.5027 48.6915 4.1427 51.3315C6.1927 53.3815 7.4027 53.5515 22.6127 53.8415L38.8927 54.1515L37.1627 60.9615C35.3327 68.1915 35.7827 73.2215 38.7827 79.0415C41.7727 84.8215 48.9527 87.9515 52.0727 84.8215L52.0827 84.8315ZM91.8927 53.0215C93.0927 51.8215 87.6027 5.25152 86.0327 3.28152C84.7027 1.60152 68.1527 1.56152 66.4827 3.23152C64.7827 4.93152 64.7827 51.1315 66.4827 52.8315C67.9827 54.3315 90.4127 54.5015 91.8927 53.0215Z" stroke="white" stroke-width="3" stroke-miterlimit="10"/>
</svg>
