<svg width="95" height="95" viewBox="0 0 95 95" fill="none" xmlns="http://www.w3.org/2000/svg">
<g clip-path="url(#clip0_49_17)">
<path d="M37.56 51.07H30.97V46.58H42.78C42.78 50.04 42.87 53.54 42.7 57.01C42.67 57.68 41.69 58.63 40.95 58.88C37.63 59.99 34.29 61.49 30.88 61.73C24.67 62.18 19.98 58.89 17.93 53.64C15.56 47.57 16.88 40.26 21.06 36.4C24.92 32.84 32.02 31.83 37.05 34.21C39.86 35.54 41.67 37.72 42.36 40.98C39.6 41.77 37.49 42.63 35.07 39.53C32.07 35.69 24.58 37.77 23.34 42.73C22.6 45.71 22.62 49.27 23.51 52.19C25.21 57.79 31.8 58.43 36.35 55.11C37.13 54.54 37.08 52.83 37.58 51.06L37.56 51.07Z" fill="white"/>
<path d="M64.68 38.1V44.82H76.02V49.58H64.5V61.19H59.23V33.66H77.85V38.11H64.68V38.1Z" fill="white"/>
<path d="M79.84 12.79C78.57 13.69 77.47 14.28 76.62 15.12C75.46 16.27 74.56 16.3 73.27 15.24C67.57 10.61 61.07 7.68997 53.8 6.61997C50.24 6.08997 51.8 3.38997 51.77 1.60997C51.74 -0.570029 53.55 0.269971 54.74 0.449971C62.93 1.66997 70.26 4.90997 76.77 9.99997C77.62 10.66 78.37 11.45 79.84 12.79Z" fill="white"/>
<path d="M44.79 0.17C46.09 4.94 45.43 5.98 40.95 6.63C33.78 7.68 27.42 10.65 21.73 15.02C21.34 14.88 21.02 14.84 20.81 14.66C16.49 11.04 16.51 10.84 21.22 7.71C27.57 3.48 34.59 1.07 42.12 0.09C42.72 0.01 43.33 0 43.94 0C44.23 0 44.52 0.11 44.79 0.17Z" fill="white"/>
<path d="M82.24 79.25C80.92 77.82 79.71 76.5 78.41 75.1C79.73 73.22 81.29 71.63 82.09 69.73C84.29 64.56 86.53 59.35 88.05 53.95C89.01 50.52 91.23 51.8 93.04 51.76C95.47 51.71 94.56 53.59 94.36 54.87C93.15 62.96 89.93 70.19 84.95 76.65C84.46 77.29 83.92 77.9 83.37 78.5C83.18 78.71 82.88 78.83 82.23 79.25H82.24Z" fill="white"/>
<path d="M11.8699 15.21C12.9399 16.12 13.3899 16.51 13.8499 16.88C16.0499 18.67 16.5299 20.25 14.3799 22.8C10.1399 27.85 7.85995 33.9399 6.67995 40.4199C6.18995 43.0999 4.87995 43.81 1.60995 43.13C-0.990053 42.59 0.379947 40.6999 0.569947 39.4799C1.83995 31.29 5.22995 24.02 10.3699 17.54C10.9299 16.83 11.3499 16.01 11.8699 15.2V15.21Z" fill="white"/>
<path d="M84.57 17.1901C86.66 20.8001 89.21 24.2401 90.74 28.0801C92.52 32.5401 93.51 37.3301 94.65 42.0201C94.93 43.1601 95.68 45.2801 93.32 45.2001C91.44 45.1401 88.72 46.2701 88.35 42.5601C88.05 39.5801 87.34 36.5601 86.3 33.7401C85.16 30.6401 83.63 27.6301 81.93 24.7901C79.46 20.6701 79.47 20.2401 84.58 17.1801L84.57 17.1901Z" fill="white"/>
<path d="M15.4399 82.6C16.3299 81.66 16.9299 81.12 17.4199 80.5C18.9899 78.49 20.3699 78.54 22.4099 80.2C27.6799 84.5 33.8099 87.22 40.5599 88.08C44.2999 88.56 43.1499 91.11 43.0899 93.05C43.0099 95.74 40.9499 94.5 39.6699 94.3C30.5499 92.87 22.5999 89.01 15.4399 82.6Z" fill="white"/>
<path d="M5.58995 49.97C6.80995 54.46 7.71995 58.82 9.22995 62.96C10.2799 65.86 12.0499 68.53 13.6799 71.19C15.1999 73.68 15.0199 74.68 12.1299 76.71C9.76995 78.37 9.34995 75.85 8.59995 74.82C4.00995 68.48 1.30995 61.36 0.229949 53.62C-0.320051 49.63 -0.170051 49.42 3.79995 49.71C4.48995 49.76 5.16995 49.91 5.57995 49.97H5.58995Z" fill="white"/>
<path d="M49.9299 88.78C58.2299 87.95 65.6199 85.3 72.2699 80.51C74.7199 78.74 75.3299 81.9 76.6699 82.89C76.9099 83.06 76.3799 85.08 75.7099 85.59C68.9799 90.73 61.2999 93.57 52.9399 94.76C50.2399 95.15 49.0999 94.37 49.6499 91.58C49.7999 90.8 49.8099 89.99 49.9199 88.79L49.9299 88.78Z" fill="white"/>
<path d="M53.31 61.1901H48.13V33.6801H53.31V61.1901Z" fill="white"/>
</g>
<defs>
<clipPath id="clip0_49_17">
<rect width="94.99" height="94.85" fill="white"/>
</clipPath>
</defs>
</svg>
