<svg width="93" height="98" viewBox="0 0 93 98" fill="none" xmlns="http://www.w3.org/2000/svg">
<g clip-path="url(#clip0_49_12)">
<path d="M-9.76585e-06 49C-9.76585e-06 33.7 -9.76585e-06 18.41 -9.76585e-06 3.11C-9.76585e-06 0.41 0.41999 0 3.04999 0C31.69 0 60.33 0 88.96 0C92 0 92.29 0.3 92.29 3.36C92.29 33.77 92.29 64.19 92.29 94.6C92.29 97.66 91.97 97.98 88.97 97.98C60.45 97.98 31.93 97.98 3.40999 97.98C0.27999 97.98 -0.0100098 97.69 -0.0100098 94.52C-0.0100098 79.34 -0.0100098 64.17 -0.0100098 48.99L-9.76585e-06 49ZM46.08 71C58.95 71 71.81 71 84.68 71C87.51 71 87.95 70.56 87.95 67.71C87.95 47.7 87.95 27.69 87.95 7.67C87.95 4.8 87.46 4.32 84.53 4.32C58.91 4.32 33.3 4.32 7.67999 4.32C4.82999 4.32 4.29999 4.85 4.29999 7.73C4.29999 27.74 4.29999 47.75 4.29999 67.77C4.29999 70.48 4.79999 70.99 7.46999 70.99C20.34 70.99 33.2 70.99 46.07 70.99L46.08 71Z" fill="white"/>
<path d="M30.1801 68.93C41.4401 54.53 52.5301 40.34 63.7301 26.03C67.3501 29.92 70.8401 33.66 74.3301 37.41C77.8701 41.21 81.4201 45 84.9301 48.82C85.3501 49.27 85.8701 49.88 85.8701 50.42C85.9401 56.55 85.9101 62.68 85.9101 68.92H30.1801V68.93Z" fill="white"/>
<path d="M10.85 69.04C18.66 59.9 26.2 51.08 33.89 42.08C36.8 44.74 39.63 47.33 42.56 50C38.62 55.03 34.54 59.78 31.02 64.91C28.76 68.2 26.22 69.5 22.28 69.11C18.67 68.75 15 69.03 10.86 69.03L10.85 69.04Z" fill="white"/>
<path d="M27.9701 14.17C33.4501 14.2 37.6801 18.51 37.6201 24C37.5601 29.33 33.1401 33.67 27.8601 33.58C22.4701 33.49 18.1801 29.2 18.1801 23.89C18.1801 18.46 22.5201 14.15 27.9701 14.17Z" fill="white"/>
</g>
<defs>
<clipPath id="clip0_49_12">
<rect width="92.3" height="97.99" fill="white"/>
</clipPath>
</defs>
</svg>
