<svg width="94" height="88" viewBox="0 0 94 88" fill="none" xmlns="http://www.w3.org/2000/svg">
<path fill-rule="evenodd" clip-rule="evenodd" d="M41.98 3.22732C41.24 3.96732 40.78 7.59732 40.78 12.7073C40.78 20.0273 40.32 22.1473 36.78 31.0273L32.78 41.0673L32.8 61.2973C32.8 72.4273 33.15 82.0273 33.55 82.6273C35.48 85.5173 39.14 86.0273 57.97 86.0073C71.53 86.0073 78.03 85.6173 79.79 84.7273C83.18 83.0173 85.07 78.8873 83.89 75.7973C83.16 73.8773 83.37 73.1473 84.92 72.1773C87.71 70.4373 88.95 66.5673 87.74 63.3873C86.99 61.4173 87.09 60.3373 88.11 59.1373C90.31 56.5573 90.81 54.1973 89.73 51.3773C88.94 49.3073 89.09 48.3473 90.42 46.8773C92.8 44.2473 92.56 39.3673 89.92 36.7273C87.87 34.6773 86.66 34.5073 71.45 34.2173L55.17 33.9073L56.9 27.0973C58.73 19.8673 58.28 14.8373 55.28 9.01732C52.29 3.23732 45.11 0.107317 41.99 3.23732L41.98 3.22732ZM2.17005 35.0373C0.970045 36.2373 6.46005 82.8073 8.03005 84.7773C9.36005 86.4573 25.91 86.4973 27.58 84.8273C29.28 83.1273 29.28 36.9273 27.58 35.2273C26.08 33.7273 3.65005 33.5573 2.17005 35.0373Z" stroke="white" stroke-width="3" stroke-miterlimit="10"/>
</svg>
