<svg width="38" height="40" viewBox="0 0 38 40" fill="none" xmlns="http://www.w3.org/2000/svg">
<path d="M12.0065 29.1671C11.6395 29.1671 11.3031 29.0295 11.0278 28.739C10.7526 28.4637 10.615 28.1273 10.615 27.7603V13.2799C10.615 12.9129 10.7526 12.5765 11.0278 12.3013C11.3031 12.0261 11.6395 11.8884 12.0065 11.8884H13.5202V10.4817H15.034V11.8884H22.97V10.4817H24.4838V11.8884H25.9976C26.3646 11.8884 26.701 12.0261 26.9762 12.3013C27.2514 12.5765 27.389 12.9129 27.389 13.2799V27.7603C27.389 28.1273 27.2514 28.4637 26.9762 28.739C26.701 29.0142 26.3646 29.1671 25.9976 29.1671H12.0065ZM12.0065 27.7603H26.0282V17.7143H12.0065V27.7603ZM12.0065 16.3075H26.0282V13.2799H12.0065V16.3075ZM19.0097 21.6899C18.7497 21.6899 18.5204 21.5981 18.3369 21.4146C18.1534 21.2311 18.0616 21.0171 18.0616 20.7418C18.0616 20.4666 18.1534 20.2525 18.3369 20.069C18.5204 19.8856 18.7344 19.7938 19.0097 19.7938C19.2849 19.7938 19.499 19.8856 19.6825 20.069C19.8659 20.2525 19.9577 20.4666 19.9577 20.7418C19.9577 21.0171 19.8659 21.2311 19.6825 21.4146C19.499 21.5981 19.2696 21.6899 19.0097 21.6899ZM15.2634 21.6899C15.0035 21.6899 14.7741 21.5981 14.5906 21.4146C14.4071 21.2311 14.3154 21.0171 14.3154 20.7418C14.3154 20.4666 14.4071 20.2525 14.5906 20.069C14.7741 19.8856 14.9882 19.7938 15.2634 19.7938C15.5386 19.7938 15.7527 19.8856 15.9362 20.069C16.1197 20.2525 16.2114 20.4666 16.2114 20.7418C16.2114 21.0171 16.1197 21.2311 15.9362 21.4146C15.7527 21.5981 15.5386 21.6899 15.2634 21.6899ZM22.7406 21.6899C22.4807 21.6899 22.2513 21.5981 22.0678 21.4146C21.8843 21.2311 21.7926 21.0171 21.7926 20.7418C21.7926 20.4666 21.8843 20.2525 22.0678 20.069C22.2513 19.8856 22.4654 19.7938 22.7406 19.7938C23.0006 19.7938 23.2299 19.8856 23.4134 20.069C23.5969 20.2525 23.6887 20.4666 23.6887 20.7418C23.6887 21.0171 23.5969 21.2311 23.4134 21.4146C23.2299 21.5981 23.0159 21.6899 22.7406 21.6899ZM19.0097 25.4208C18.7497 25.4208 18.5204 25.3291 18.3369 25.1456C18.1534 24.9621 18.0616 24.748 18.0616 24.4728C18.0616 24.1976 18.1534 23.9835 18.3369 23.8C18.5204 23.6165 18.7344 23.5248 19.0097 23.5248C19.2849 23.5248 19.499 23.6165 19.6825 23.8C19.8659 23.9835 19.9577 24.1976 19.9577 24.4728C19.9577 24.748 19.8659 24.9621 19.6825 25.1456C19.499 25.3291 19.2696 25.4208 19.0097 25.4208ZM15.2634 25.4208C15.0035 25.4208 14.7741 25.3291 14.5906 25.1456C14.4071 24.9621 14.3154 24.748 14.3154 24.4728C14.3154 24.1976 14.4071 23.9835 14.5906 23.8C14.7741 23.6165 14.9882 23.5248 15.2634 23.5248C15.5386 23.5248 15.7527 23.6165 15.9362 23.8C16.1197 23.9835 16.2114 24.1976 16.2114 24.4728C16.2114 24.748 16.1197 24.9621 15.9362 25.1456C15.7527 25.3291 15.5386 25.4208 15.2634 25.4208ZM22.7406 25.4208C22.4807 25.4208 22.2513 25.3291 22.0678 25.1456C21.8843 24.9621 21.7926 24.748 21.7926 24.4728C21.7926 24.1976 21.8843 23.9835 22.0678 23.8C22.2513 23.6165 22.4654 23.5248 22.7406 23.5248C23.0006 23.5248 23.2299 23.6165 23.4134 23.8C23.5969 23.9835 23.6887 24.1976 23.6887 24.4728C23.6887 24.748 23.5969 24.9621 23.4134 25.1456C23.2299 25.3291 23.0159 25.4208 22.7406 25.4208Z" fill="#F3B720"/>
</svg>
