<svg width="39" height="40" viewBox="0 0 39 40" fill="none" xmlns="http://www.w3.org/2000/svg">
<g clip-path="url(#clip0_59_167)">
<path d="M12.9629 34.5341V20.9865C11.6938 20.7112 10.6081 20.069 9.70595 19.0598C8.80379 18.0506 8.36035 16.8273 8.36035 15.4053V5.09928H10.5622V15.4053H12.9476V5.09928H15.1495V15.4053H17.5349V5.09928H19.7367V15.4053C19.7367 16.8273 19.2933 18.0506 18.3911 19.0598C17.489 20.069 16.4033 20.7265 15.1342 20.9865V34.5341H12.9629ZM28.2384 34.5341V22.7602H24.0029V11.5367C24.0029 9.59478 24.5992 8.03512 25.7766 6.85772C26.954 5.68033 28.5137 5.08398 30.4556 5.08398V34.5341H28.2384Z" fill="#101010"/>
</g>
<defs>
<clipPath id="clip0_59_167">
<rect width="37.6766" height="38.5482" fill="white" transform="translate(0.561768 0.542725)"/>
</clipPath>
</defs>
</svg>
