<svg width="39" height="40" viewBox="0 0 39 40" fill="none" xmlns="http://www.w3.org/2000/svg">
<path d="M11.461 26.8694H12.5772L23.8007 15.6459L22.6844 14.5296L11.461 25.7531V26.8694ZM27.027 14.5602L23.7854 11.3186L24.8557 10.2482C25.1463 9.95769 25.498 9.82007 25.9261 9.82007C26.3542 9.82007 26.7059 9.95769 26.9965 10.2482L28.1127 11.3644C28.4032 11.655 28.5408 12.0067 28.5408 12.4348C28.5408 12.8629 28.4032 13.2146 28.1127 13.5052L27.027 14.5602ZM25.9567 15.6153L13.1735 28.3984H9.93188V25.1568L22.715 12.3736L25.9567 15.6153ZM23.2502 15.0801L22.6844 14.5296L23.8007 15.6459L23.2502 15.0801Z" fill="#E7A81F"/>
</svg>
