<svg width="39" height="40" viewBox="0 0 39 40" fill="none" xmlns="http://www.w3.org/2000/svg">
<path d="M16.5763 28.9183C16.8821 29.0407 17.2032 29.1477 17.5091 29.27C17.9831 29.4688 18.4265 29.7135 18.8241 30.0193C18.9005 30.0804 18.977 30.1416 19.0687 30.1722C18.9005 30.5086 18.7323 30.8603 18.5488 31.1967C18.2736 31.7318 17.7231 32.0224 17.1421 31.9612C16.6069 31.9 16.1329 31.4872 15.9647 30.9367C15.8729 30.585 15.9035 30.2486 16.0564 29.9275C16.2399 29.5911 16.4234 29.2547 16.5763 28.9183Z" fill="#F9D0BC"/>
<path d="M13.5794 7.55706C14.2981 7.92404 14.9403 8.41335 15.5367 8.94853C15.8578 9.23906 16.1483 9.52958 16.4235 9.86598C16.4235 10.0953 16.2247 10.2024 16.0871 10.3553C16.0565 10.4012 16.0107 10.4317 15.9495 10.447C15.7966 10.4623 15.659 10.4012 15.5214 10.3706C14.3898 10.1412 13.3042 10.2941 12.2644 10.7529C11.6222 11.0128 11.0717 11.4256 10.5518 11.8997C10.0472 12.3584 9.64968 12.8936 9.32857 13.4746C9.19095 13.704 9.1145 13.9639 8.99217 14.2086C8.86985 14.4838 8.80868 14.7743 8.74752 15.0802C8.57932 15.8447 8.62519 16.6245 8.79339 17.3891C8.80868 17.4655 8.82397 17.542 8.82397 17.6184C8.73223 17.8172 8.53345 17.909 8.38054 18.0466C8.34996 18.0772 8.30409 18.0772 8.25821 18.0466C7.38663 17.282 6.63738 16.4258 6.07162 15.4471C5.96459 15.2484 5.87284 15.0649 5.90342 14.8508C5.96459 14.4838 6.23982 14.2697 6.69855 14.2239C6.9432 14.2086 6.95849 14.1933 6.91262 13.9486C6.79029 13.1994 6.9432 12.4807 7.20314 11.7926C7.4478 11.1504 7.70774 10.5082 7.9524 9.86598C7.99827 9.72836 8.07472 9.63662 8.19705 9.59075C9.09921 9.23906 9.97079 8.8262 10.9188 8.59684C11.3928 8.48981 11.8669 8.44393 12.3409 8.53568C12.5702 8.58155 12.5855 8.56626 12.6008 8.3369C12.6161 7.98521 12.7537 7.70997 13.0901 7.55706C13.2583 7.4959 13.4112 7.51119 13.5794 7.55706Z" fill="#4E5367"/>
<path d="M8.94642 14.1627C9.83328 11.9608 11.4388 10.6305 13.7783 10.2329C14.5123 10.1106 15.2462 10.1565 15.9649 10.4011C16.0719 10.3705 16.1637 10.4011 16.2554 10.4317C17.3258 10.8446 18.1056 11.5632 18.6102 12.5877C18.6255 12.6183 18.6408 12.6489 18.6408 12.6795C18.6255 12.7559 18.6561 12.8324 18.6867 12.8935C18.916 13.4899 19.0384 14.1168 19.0231 14.7437C19.0231 14.8049 18.9925 14.8813 19.0842 14.8966C19.0995 14.9119 19.1148 14.9272 19.0995 14.9425C18.9619 15.4777 18.9466 16.0434 18.7326 16.5633C18.6255 16.8233 18.5338 17.0985 18.335 17.3126C18.075 17.4808 17.8151 17.649 17.5704 17.8172C16.7753 18.3371 15.9343 18.6582 15.0016 18.8111C14.39 18.9028 13.7936 18.8722 13.1973 18.7346C13.0749 18.704 12.9373 18.6888 12.8456 18.5817C12.7997 18.5359 12.7997 18.4594 12.7997 18.3982C12.7844 17.8783 12.4174 17.4655 11.867 17.4349C11.8211 17.4349 11.7905 17.4349 11.7446 17.4043C11.6682 17.3585 11.6376 17.282 11.5917 17.2208C11.4847 17.0373 11.3471 16.8233 11.133 16.7009C10.9036 16.5633 10.6896 16.6857 10.6896 16.9456C10.6896 17.0068 10.7049 17.0679 10.6437 17.1291C10.5367 17.1597 10.4755 17.0832 10.4143 17.0068C10.0168 16.5939 9.68038 16.1505 9.42043 15.6306C9.29811 15.4012 9.19107 15.1719 9.08403 14.9425C8.96171 14.6826 8.86996 14.4379 8.94642 14.1627Z" fill="#F9D0BD"/>
<path d="M18.1361 25.8909C17.7692 25.7686 17.4939 25.5392 17.2646 25.2181C16.867 24.6523 16.5 24.0713 16.1636 23.4597C16.1025 23.4291 16.0566 23.3832 16.026 23.3067C15.7966 22.8021 15.552 22.2975 15.3685 21.7624C15.3532 21.7012 15.3073 21.6248 15.3379 21.5636C15.3685 21.4718 15.445 21.4413 15.5214 21.4107C16.6376 20.9672 17.5857 20.3097 18.3808 19.4229C18.9771 18.7501 19.4817 18.0008 19.7876 17.1445C19.8181 17.0681 19.8487 16.9916 19.9252 16.9458C20.1698 16.9305 20.3686 17.0681 20.598 17.1445C20.6897 17.1751 20.7662 17.2057 20.7968 17.2974C21.8671 17.7715 22.8763 18.3372 23.809 19.0559C24.069 19.2547 24.2066 19.5299 24.2678 19.8357C24.3748 20.2486 24.2372 20.6156 24.069 20.9672C23.7326 21.6859 23.2739 22.3281 22.7693 22.9398C22.0047 23.8878 21.072 24.6523 20.0475 25.3098C19.6194 25.5851 19.1759 25.8144 18.6713 25.9062C18.549 25.9215 18.4267 25.9368 18.3043 25.9521C18.2585 25.9674 18.182 25.9368 18.1361 25.8909Z" fill="#8EADDB"/>
<path d="M18.1362 25.8909C18.8243 25.8756 19.4359 25.6156 20.0169 25.2486C21.6684 24.2089 22.9681 22.848 23.9008 21.1354C24.1149 20.7684 24.2219 20.3556 24.2372 19.9274C24.2372 19.8969 24.2372 19.851 24.2678 19.8357C24.7265 20.3403 24.9712 20.9213 24.9712 21.5941C24.9712 22.0529 25.0629 22.4963 25.2311 22.9244C26.0874 25.004 26.8978 27.0988 27.5859 29.2243C27.5247 29.3619 27.4024 29.316 27.3107 29.316C26.8061 29.3313 26.3015 29.4078 25.8275 29.6065C25.5981 29.6983 25.384 29.8053 25.17 29.9429C25.0935 29.9888 25.017 30.0653 24.91 30.0041C24.4054 28.5362 23.8855 27.0683 23.3198 25.6156C23.3045 25.5698 23.2739 25.5239 23.2739 25.4933C23.2433 25.3863 23.2127 25.3863 23.1363 25.4474C22.8457 25.6768 22.5399 25.8909 22.2188 26.0591C21.8977 26.2273 21.5766 26.3649 21.2249 26.4413C21.0567 26.4872 20.9497 26.5637 20.8732 26.7166C20.2769 27.8634 19.6805 29.0102 19.0842 30.1417C18.9925 30.1876 18.9313 30.1417 18.8548 30.0958C18.2126 29.6065 17.494 29.2854 16.7447 29.0255C16.6683 28.9949 16.6071 28.9643 16.5918 28.8726C17.0964 27.9093 17.6163 26.9001 18.1362 25.8909Z" fill="#4E5367"/>
<path d="M20.7968 17.2974C20.5063 17.1904 20.2158 17.0986 19.9252 16.9916C19.8641 17.0069 19.8182 17.0069 19.757 16.9916C19.4665 16.8845 19.1607 16.8081 18.8549 16.7163C18.7784 16.6858 18.702 16.6552 18.6714 16.5787C18.7937 16.12 18.9313 15.6766 18.9466 15.2025C18.9466 15.0802 19.0384 15.0191 19.0842 14.9273C20.1087 13.5664 21.0873 12.1903 22.0201 10.7682C22.1577 10.5541 22.28 10.3401 22.4176 10.126C22.754 9.62139 23.3657 9.39203 23.9161 9.54494C24.5431 9.71314 24.9559 10.2024 25.0018 10.8447C25.0171 11.1199 24.9406 11.3951 24.803 11.6245C23.962 13.0465 22.9681 14.3768 22.0048 15.7224C21.6072 16.2576 21.1944 16.7775 20.7968 17.2974Z" fill="#F7BC9D"/>
<path d="M15.3684 21.5636C15.5671 22.1446 15.8271 22.6951 16.087 23.2456C16.1176 23.3067 16.1635 23.3832 16.1635 23.4596C15.8424 24.3771 15.4448 25.2793 15.0778 26.1814C14.8179 26.8236 14.5427 27.4506 14.2216 28.0622C13.8546 28.7809 13.0747 29.0714 12.3714 28.7503C11.668 28.4292 11.301 27.6035 11.6833 26.8389C12.6619 24.8817 13.4264 22.8633 14.1145 20.799C14.1298 20.7226 14.2674 20.6156 14.0839 20.5544C14.0839 20.4932 14.1298 20.4626 14.1757 20.4474C14.4203 20.3862 14.6497 20.325 14.8943 20.2486C14.9402 20.2333 15.0014 20.2333 15.0473 20.2639C15.0931 20.2944 15.0931 20.3403 15.1084 20.3862C15.1696 20.7073 15.2613 21.0284 15.3684 21.3342C15.3837 21.3954 15.3989 21.4718 15.3684 21.5636Z" fill="#F9D0BC"/>
<path d="M15.0013 20.2639C14.6955 20.4015 14.3896 20.4627 14.0685 20.5391C13.0899 20.7379 12.1266 20.6462 11.1939 20.2639C11.1633 20.2486 11.148 20.2333 11.1174 20.2333C10.9951 20.2486 10.888 20.1874 10.781 20.1263C10.0165 19.6981 9.42012 19.0865 9.00726 18.2914C8.93081 18.1385 8.85435 18.0008 8.79319 17.8479C8.74732 17.7715 8.73203 17.695 8.76261 17.6186C8.45679 16.487 8.48737 15.3708 8.88494 14.2546C8.90023 14.224 8.91552 14.1934 8.9461 14.1628C8.99197 14.6827 9.22133 15.1262 9.46599 15.5696C9.7718 16.1507 10.1388 16.6705 10.6281 17.0987C10.8269 17.221 11.0409 17.3433 11.1174 17.6033C11.0562 17.7562 10.9186 17.8479 10.8116 17.955C10.5516 18.1996 10.3987 18.4901 10.3529 18.8571C10.2764 19.4535 10.6587 19.9428 11.2703 19.9428C11.8514 19.9428 12.2795 19.6217 12.5853 19.1324C12.6618 19.01 12.7229 18.8724 12.7688 18.7348C12.7841 18.6736 12.8147 18.5972 12.8911 18.5819C13.8697 18.9183 14.8637 18.8571 15.8423 18.5819C16.5609 18.3678 17.2032 18.0314 17.8148 17.6033C17.983 17.4962 18.1665 17.3892 18.3347 17.2822C18.4111 17.3739 18.35 17.4504 18.3194 17.5268C18.1359 17.8479 17.9218 18.1538 17.6925 18.4443C17.0655 19.1935 16.3163 19.7746 15.4294 20.1874C15.2765 20.2333 15.1542 20.325 15.0013 20.2639Z" fill="#F7BC9D"/>
<path d="M24.9253 30.0194C25.4605 29.6371 26.0415 29.3924 26.6837 29.3007C26.9437 29.2701 27.1883 29.2395 27.4483 29.2548C27.4942 29.2548 27.5553 29.2701 27.6012 29.2242C27.6929 29.6065 27.8458 29.9582 27.9223 30.3558C28.0905 31.2426 27.2189 32.0989 26.3473 31.9307C25.7663 31.8237 25.384 31.5026 25.2158 30.9368C25.1088 30.631 25.017 30.3252 24.9253 30.0194Z" fill="#F9D0BC"/>
<path d="M8.76296 17.6184C9.02291 18.123 9.25227 18.6276 9.60396 19.0557C9.97094 19.4839 10.3991 19.8203 10.8884 20.0955C10.9648 20.1414 11.0413 20.1873 11.1178 20.2331C11.0413 20.3096 10.9648 20.4013 10.8731 20.4778C10.2615 21.013 9.58867 21.0283 8.90058 20.7072C8.1972 20.386 7.95255 19.7744 7.93726 19.0557C7.93726 18.7958 8.01371 18.5664 8.12075 18.3371C8.16662 18.23 8.21249 18.1383 8.25836 18.0313C8.44185 17.9242 8.56418 17.7254 8.76296 17.6184Z" fill="#F9D0BC"/>
<path d="M18.6407 12.6795C18.4878 12.6336 18.4725 12.4807 18.4114 12.3737C17.8762 11.4409 17.0811 10.814 16.0719 10.447C16.026 10.447 15.9954 10.4165 15.9648 10.4012C16.1178 10.233 16.2707 10.0495 16.4236 9.88128C16.4847 9.88128 16.5306 9.8507 16.5765 9.82012C17.2493 9.40727 18.1667 9.48372 18.7172 10.0189C19.3135 10.5847 19.4664 11.4868 19.0842 12.1902C18.9771 12.389 18.8089 12.5419 18.6407 12.6795Z" fill="#F7BC9E"/>
<path d="M15.0015 20.2638C15.6284 20.0039 16.2094 19.6828 16.7293 19.2546C17.3563 18.7347 17.8609 18.1231 18.2584 17.4197C18.289 17.3739 18.3043 17.328 18.3196 17.2821C18.4419 17.0528 18.5489 16.8081 18.6713 16.5787C19.023 16.6858 19.3746 16.7775 19.7263 16.8846C19.8028 16.9151 19.8792 16.9304 19.9404 16.9916C19.6958 17.7867 19.2523 18.4901 18.7324 19.1323C17.9373 20.1262 16.974 20.8908 15.7966 21.3801C15.659 21.4412 15.5214 21.4871 15.3684 21.5483C15.185 21.1507 15.0473 20.7226 15.0015 20.2638Z" fill="#7E91C9"/>
<path d="M15.9495 12.6949C16.1024 12.542 16.2553 12.389 16.4082 12.2514C16.7599 11.9456 17.1728 11.7927 17.6162 11.915C18.2737 12.0985 18.5184 12.6337 18.3043 13.3218C18.0749 14.0252 17.5703 14.4533 16.8211 14.4992C16.3318 14.5298 15.8884 14.2392 15.7813 13.6582C15.766 13.5512 15.766 13.4594 15.7507 13.3524C15.7507 13.2912 15.7966 13.2453 15.8578 13.2148C15.9954 13.1383 16.0107 13.016 15.9801 12.8784C15.9495 12.8325 15.9036 12.756 15.9495 12.6949Z" fill="#EDA1AB"/>
<path d="M12.8761 18.5817C12.7538 19.1475 12.448 19.5756 11.9434 19.8509C11.5917 20.0344 11.24 20.0802 10.8578 19.9426C10.3837 19.7591 10.1544 19.2698 10.292 18.7041C10.3532 18.4288 10.4755 18.1842 10.6896 18.0007C10.8272 17.8631 10.9648 17.7407 11.0871 17.6184C11.133 17.5572 11.1942 17.5725 11.24 17.6031C11.3929 17.6643 11.5153 17.6337 11.607 17.4961C11.6376 17.4502 11.6835 17.4043 11.7446 17.4043C12.3563 17.3432 12.9373 17.8172 12.8761 18.5817Z" fill="#EDA1AB"/>
<path d="M13.0595 16.0894C12.7231 16.0894 12.5396 15.9212 12.6008 15.646C12.6313 15.4778 12.769 15.3707 12.9677 15.3555C13.5029 15.2943 13.6711 15.1261 13.7476 14.6062C13.7782 14.3157 13.9158 14.1934 14.1451 14.2239C14.3439 14.2239 14.4815 14.4074 14.4815 14.6521C14.4815 15.4166 13.8393 16.0741 13.0595 16.0894Z" fill="#4E5367"/>
<path d="M11.7444 17.3892C11.5456 17.7409 11.4539 17.7715 11.0869 17.6033C11.0257 17.4962 10.9187 17.4351 10.8423 17.3739C10.7658 17.2974 10.6741 17.221 10.6282 17.1292C10.5976 16.9763 10.567 16.8387 10.6893 16.7011C10.8117 16.5482 10.9952 16.5329 11.1787 16.6399C11.4386 16.8081 11.6374 17.0681 11.7444 17.3892Z" fill="#4E5367"/>
<path d="M15.9496 12.6948C16.1484 13.0312 16.0872 13.2453 15.7508 13.3523C15.3227 13.2911 15.1239 12.9547 14.9404 12.6183C14.864 12.496 14.971 12.3737 15.0781 12.2819C15.231 12.1749 15.3686 12.1749 15.5062 12.2819C15.6744 12.4196 15.812 12.5572 15.9496 12.6948Z" fill="#4E5367"/>
</svg>
