<svg width="38" height="40" viewBox="0 0 38 40" fill="none" xmlns="http://www.w3.org/2000/svg">
<path d="M7.41821 26.9905C7.41821 20.8741 7.41821 14.7731 7.41821 8.65676C7.41821 8.48856 7.46409 8.44269 7.63229 8.44269C15.3236 8.44269 23.0149 8.44269 30.7062 8.44269C30.8744 8.44269 30.9202 8.48856 30.9202 8.65676C30.9202 16.3481 30.9202 24.0393 30.9202 31.7306C30.9202 31.8988 30.8744 31.9447 30.7062 31.9447C23.0149 31.9447 15.3236 31.9447 7.63229 31.9447C7.46409 31.9447 7.41821 31.8988 7.41821 31.7306C7.4335 30.4615 7.41821 29.1771 7.41821 27.9079C7.54054 27.9079 7.52525 28.015 7.54054 28.0914C7.92281 29.4982 8.87084 30.2474 10.247 30.5227C10.4152 30.5532 10.5987 30.5379 10.7669 30.5685C11.1645 30.5991 11.562 30.5838 11.9443 30.5685C12.6936 30.5685 13.4275 30.5685 14.1768 30.5685C15.5988 30.5685 17.0361 30.5532 18.4582 30.5685C18.6876 30.5685 18.9322 30.5685 19.1616 30.5685C19.712 30.5532 20.2472 30.5532 20.7977 30.5685C21.0882 30.5685 21.3787 30.538 21.654 30.5227C21.7763 30.5227 21.9139 30.5227 22.0363 30.5532C22.2503 30.5685 22.4797 30.5685 22.6938 30.5532C23.0913 30.4768 23.4889 30.5227 23.8864 30.5227C23.917 30.5227 23.9323 30.538 23.9629 30.538C24.0241 30.5532 24.0852 30.5685 24.1464 30.5685C24.4981 30.5991 24.8498 30.538 25.1862 30.5074C25.7978 30.4462 26.2412 29.7887 26.1648 29.1771C26.1495 29.0089 26.0577 28.8407 26.1342 28.6572C26.2259 28.5807 26.333 28.6266 26.44 28.6419C27.388 28.8101 28.3361 28.9783 29.2688 29.1465C29.6664 29.2076 29.7428 29.1618 29.7887 28.7642C29.7887 28.7183 29.804 28.6725 29.804 28.6266C29.8499 28.3208 29.7734 28.1985 29.4676 28.1373C28.7642 27.9844 28.0761 27.8162 27.3728 27.6633C27.2504 27.6327 27.0516 27.648 27.0516 27.4951C27.0516 27.3727 27.2504 27.388 27.3575 27.3575C28.3514 27.174 29.3453 26.9905 30.3545 26.807C30.6909 26.7458 30.7673 26.6388 30.6909 26.3024C30.6756 26.2412 30.6756 26.1801 30.6603 26.1189C30.5838 25.8284 30.4921 25.7519 30.1863 25.8131C29.2229 25.9813 28.2596 26.1648 27.3116 26.3483C27.1893 26.3788 27.0669 26.3941 26.9446 26.4094C26.8987 26.4094 26.8529 26.4094 26.8223 26.3636C26.7917 26.3177 26.8376 26.2871 26.8682 26.2565C26.9293 26.2106 26.9905 26.1648 27.0516 26.1189C27.6174 25.7366 28.1832 25.3696 28.7489 24.9874C28.8254 24.9262 28.9171 24.8803 28.9783 24.8039C29.1771 24.5898 29.1006 24.5134 28.856 24.0699C28.7642 23.8864 28.6113 23.8711 28.3972 23.9782C28.3208 24.0241 28.2443 24.0699 28.1526 24.1005C28.1067 24.1158 28.0608 24.1158 28.0303 24.0699C27.9844 23.9935 27.9997 23.9017 28.015 23.8253C28.1526 23.2442 28.1985 22.6479 28.2443 22.0515C28.2596 21.8375 28.1832 21.7457 27.9691 21.7151C27.8926 21.6998 27.8009 21.7151 27.755 21.6234C27.7244 21.5164 27.7856 21.4552 27.8315 21.3634C28.1067 20.8283 28.1679 20.2778 28.0303 19.6967C27.9844 19.498 27.8774 19.3909 27.6786 19.3298C27.3422 19.2533 27.0211 19.2533 26.6847 19.2992C26.6082 19.3145 26.5318 19.3451 26.4553 19.3145C26.3941 19.2533 26.4247 19.1769 26.44 19.1004C26.5012 18.03 25.5837 17.2808 24.5592 17.556C24.4522 17.5866 24.3605 17.6478 24.2534 17.5713C24.1923 17.4643 24.2381 17.3572 24.2687 17.2655C24.3758 16.8374 24.3605 16.4245 24.2687 15.9964C24.2228 15.767 24.1005 15.66 23.8864 15.5988C23.1372 15.4153 22.4491 15.5376 21.8222 15.9658C21.7151 16.0269 21.6387 16.1187 21.5164 16.1493C21.394 16.1187 21.394 15.9964 21.3787 15.9046C21.2564 15.4459 21.0424 15.033 20.7212 14.6661C20.4919 14.4061 20.3848 14.3908 20.1402 14.6355C19.5897 15.1707 19.0545 15.7211 18.5041 16.2716C18.4276 16.3481 18.3665 16.4398 18.2441 16.4398C17.9689 16.1951 17.6937 15.9658 17.3114 15.9199C16.9138 15.874 16.5621 15.9505 16.2563 16.2104C16.1799 16.2716 16.1187 16.3328 16.0575 16.3939C15.9658 16.4857 15.874 16.501 15.7517 16.4245C15.293 16.1646 14.819 16.1799 14.3603 16.4398C14.2838 16.4704 14.2073 16.5621 14.1156 16.4551C14.0544 16.2104 14.1003 15.9505 14.085 15.6905C14.085 15.66 14.085 15.6294 14.085 15.6141C14.085 15.2624 14.085 14.9107 14.085 14.559C14.1156 13.9474 13.611 13.4428 12.9382 13.4275C12.5559 13.4122 12.5254 13.3969 12.5254 13.0146C12.5254 12.7241 12.5254 12.4183 12.5254 12.1278C12.5254 12.036 12.5101 11.9443 12.5865 11.8678C12.6324 11.8373 12.6783 11.822 12.7394 11.822C12.9076 11.7914 12.9688 11.6996 12.9688 11.5314C12.9688 11.0421 12.9688 10.5375 12.9688 10.0482C12.9688 9.89532 12.8923 9.80357 12.7394 9.78828C12.7088 9.78828 12.663 9.77299 12.6324 9.77299C11.7914 9.77299 10.9351 9.77299 10.0941 9.7577C10.0482 9.7577 10.0024 9.77299 9.95649 9.78828C9.81888 9.83415 9.773 9.94119 9.773 10.0635C9.773 10.5528 9.773 11.0421 9.773 11.5314C9.773 11.6232 9.80358 11.7149 9.88004 11.7761C9.98707 11.8678 10.1553 11.7761 10.247 11.9137C10.3235 12.3724 10.3082 12.8312 10.247 13.2899C10.2011 13.351 10.1247 13.3663 10.0482 13.3663C9.95649 13.3816 9.88004 13.4122 9.78829 13.4122C9.08491 13.4581 8.64148 14.0391 8.62619 14.7119C8.62619 15.0636 8.62619 15.4306 8.62619 15.7823C8.64148 17.3878 8.64148 18.9781 8.62619 20.5836C8.62619 22.0668 8.64148 23.55 8.62619 25.0332C8.6109 25.1403 8.56503 25.2167 8.48857 25.2779C8.02985 25.6908 7.73932 26.1801 7.57112 26.7611C7.54054 26.8529 7.55583 26.9752 7.41821 26.9905Z" fill="#FEFEFE"/>
<path d="M7.41821 26.9906C7.49467 26.9447 7.49467 26.8529 7.50996 26.7765C7.66287 26.1649 7.98397 25.645 8.45799 25.2321C8.50386 25.2015 8.53444 25.1557 8.56503 25.1251C8.79439 24.8346 9.10021 24.6969 9.4366 24.5899C9.66597 24.7734 9.97178 24.8193 10.2164 24.9875C10.2164 25.0945 10.1247 25.1404 10.0482 25.2015C9.52835 25.6756 9.1155 26.2413 9.00846 26.96C8.85555 27.8927 9.06962 28.7184 9.71184 29.4371C10.2011 29.9723 10.7975 30.324 11.4856 30.4922C11.562 30.5075 11.6538 30.5075 11.7455 30.6451C11.3785 30.6298 11.0269 30.6604 10.6905 30.6298C9.49777 30.6298 7.84636 29.7888 7.47938 28.0456C7.46409 27.9998 7.49467 27.9386 7.41821 27.908C7.41821 27.8774 7.41821 27.8469 7.41821 27.8163C7.44879 27.7245 7.44879 27.6328 7.41821 27.541C7.41821 27.3575 7.41821 27.1741 7.41821 26.9906Z" fill="#D64848"/>
<path d="M7.41821 27.541C7.47938 27.6327 7.49467 27.7244 7.41821 27.8162C7.41821 27.7244 7.41821 27.6327 7.41821 27.541Z" fill="#DD6666"/>
<path d="M27.8317 21.6387C27.8776 21.6999 27.954 21.6846 28.0305 21.6846C28.3057 21.6999 28.4128 21.8069 28.3822 22.0821C28.321 22.7243 28.2904 23.3666 28.1222 23.9782C28.1069 24.0241 28.1222 24.0699 28.1222 24.1158C28.1069 24.2229 28.0152 24.2534 27.9387 24.2993C27.2354 24.7122 26.532 25.125 25.8133 25.5532C25.7369 25.599 25.6757 25.6602 25.584 25.6143C25.5381 25.5532 25.5381 25.492 25.5075 25.4155C25.324 24.4675 24.6053 24.0699 23.7032 24.4216C22.8316 24.758 21.96 25.0791 21.0732 25.4155C20.8591 25.4767 20.645 25.5532 20.4309 25.6602C19.2536 26.1036 18.0762 26.5623 16.8988 27.0058C16.807 27.0364 16.7306 27.0822 16.6388 27.0517C16.5624 27.0211 16.5318 26.9446 16.5165 26.8682C16.2871 25.859 15.6602 25.1709 14.758 24.7122C14.6969 24.6816 14.6357 24.651 14.5898 24.5898C14.6051 24.3452 14.4675 24.2229 14.2535 24.1311C14.0088 24.0241 13.7641 23.9782 13.5042 23.9476C13.4889 23.9476 13.4736 23.9323 13.4583 23.9323C12.9843 23.8865 12.9843 23.8865 12.8926 23.4124C12.8008 22.969 12.8008 22.5103 12.7549 22.0516C12.7397 21.8681 12.8008 21.7152 12.969 21.6234C13.4277 21.5622 13.8712 21.6081 14.3299 21.5928C14.8039 21.5775 15.2779 21.5775 15.7367 21.5928C16.0731 21.5775 16.4095 21.5928 16.7459 21.5928C16.9599 21.5775 17.1893 21.5928 17.4034 21.5928C19.0854 21.5928 20.7826 21.5928 22.4646 21.5928C23.5962 21.5928 24.743 21.5775 25.8745 21.5928C26.0274 21.5928 26.165 21.5775 26.3179 21.5928C26.7461 21.5928 27.1589 21.5928 27.5871 21.5928C27.6788 21.6081 27.7553 21.5928 27.8317 21.6387Z" fill="#E5E8EC"/>
<path d="M25.5532 25.4308C25.5685 25.492 25.5838 25.5532 25.5991 25.6143C25.6755 25.6755 25.6908 25.7519 25.7061 25.8284C25.8743 26.6847 26.0272 27.5563 26.1801 28.4126C26.1954 28.5043 26.226 28.596 26.1801 28.6878C26.1954 28.9936 26.3178 29.2994 26.2413 29.6052C26.119 30.171 25.6755 30.5839 25.1098 30.6144C24.7275 30.6297 24.3605 30.6909 23.9783 30.6144C24.1159 30.5074 24.2688 30.5533 24.4217 30.5533C24.5593 30.5533 24.6052 30.4921 24.5899 30.3545C24.4982 29.9416 24.4523 29.5288 24.3452 29.1312C24.3452 29.1159 24.33 29.0853 24.33 29.0701C24.2688 28.9019 24.1465 28.8101 24.0088 28.856C23.8406 28.9019 23.7795 29.0242 23.8101 29.1924C23.8712 29.5747 23.9477 29.9569 24.0241 30.3392C24.0394 30.4462 24.0853 30.5533 23.9936 30.645C23.5807 30.645 23.1679 30.645 22.755 30.6603C22.6021 30.4462 22.6327 30.2016 22.5715 29.9722C22.5409 29.8193 22.5256 29.6664 22.4798 29.5288C22.4186 29.33 22.2963 29.2383 22.1587 29.2688C22.0057 29.2994 21.914 29.4523 21.9446 29.6358C21.9752 29.8958 22.0363 30.1404 22.0822 30.4004C22.0975 30.4921 22.1434 30.5839 22.0669 30.6603C21.1036 30.6603 20.1403 30.6603 19.1769 30.6603C19.0546 30.5074 19.0699 30.3239 19.0393 30.1557C18.9935 29.8805 18.9323 29.6052 18.8864 29.33C18.8711 29.2383 18.8558 29.1465 18.7947 29.0701C18.7335 28.9783 18.6418 28.9477 18.5347 28.9783C18.4277 28.9936 18.3665 29.0701 18.3512 29.1771C18.3359 29.2841 18.3359 29.3912 18.3665 29.4982C18.4277 29.804 18.4736 30.0945 18.5194 30.4004C18.5347 30.4921 18.5806 30.5839 18.5041 30.6603C18.1219 30.6603 17.7396 30.6603 17.3573 30.6756C16.394 30.6756 15.4307 30.6909 14.4674 30.6909C14.3756 30.6909 14.2839 30.6756 14.1921 30.6756C13.764 30.6909 13.4429 30.4768 13.1982 30.1404C13.1371 30.064 13.0912 29.9722 13.1065 29.8652C13.2288 29.6205 13.4123 29.437 13.6417 29.33C14.2227 29.0701 14.8191 28.8713 15.4154 28.6572C15.446 28.6419 15.4766 28.6419 15.5071 28.6419C15.553 28.6419 15.5989 28.6725 15.6295 28.6878C15.8741 28.7795 15.9964 28.7184 16.0576 28.4737C16.0729 28.4278 16.0729 28.382 16.1188 28.3514C16.7916 28.1526 17.4338 27.8774 18.0913 27.6327C18.8711 27.3422 19.651 27.0364 20.4308 26.7458C20.5072 26.7153 20.5684 26.6847 20.6449 26.7C20.7366 26.7306 20.7519 26.8223 20.7825 26.8988C20.8589 27.0364 20.966 27.1128 21.1189 27.067C21.2718 27.0211 21.3177 26.8988 21.3177 26.7458C21.3177 26.6388 21.2565 26.5318 21.3177 26.44C21.6541 26.2413 22.0363 26.1495 22.388 25.9966C22.9538 25.7672 23.5348 25.5685 24.1006 25.3391C24.6205 25.0791 25.0945 25.125 25.5532 25.4308Z" fill="#F29222"/>
<path d="M13.1371 29.8345C13.3053 30.3391 13.7029 30.5531 14.1922 30.6449C13.076 30.6449 11.975 30.6449 10.8588 30.6449C10.8129 30.6449 10.7518 30.6296 10.7059 30.6143C11.027 30.6143 11.3481 30.6143 11.6692 30.6143C11.134 30.4767 10.6294 30.2779 10.186 29.9415C9.45204 29.391 9.0086 28.6724 8.93215 27.7396C8.8404 26.5928 9.31442 25.7212 10.186 25.0179C10.2013 25.0026 10.2013 24.9873 10.2166 24.9873C10.2777 24.9261 10.3389 24.9414 10.3848 25.0026C10.4306 25.0484 10.3848 25.1096 10.3542 25.1555C10.2777 25.2472 10.2013 25.339 10.1401 25.446C10.0331 25.6601 10.1095 25.813 10.3542 25.8283C10.6447 25.8589 10.92 25.7671 11.1799 25.6601C11.394 25.5683 11.6233 25.4766 11.8068 25.3237C11.975 25.1861 12.1126 25.2014 12.2808 25.3237C12.6019 25.5683 12.9689 25.6907 13.3665 25.7977C13.5041 25.8283 13.657 25.8436 13.7946 25.813C13.9781 25.7671 14.024 25.6601 13.9628 25.4919C13.917 25.3696 13.8099 25.2931 13.7335 25.1861C13.6264 25.0484 13.6417 24.972 13.7946 24.9414C14.1005 24.8802 14.3757 24.7579 14.6356 24.6203C15.7213 25.0943 16.4094 25.8894 16.6387 27.0668C16.5929 27.2045 16.4552 27.2045 16.3482 27.2503C16.2106 27.3115 16.0577 27.3574 15.9048 27.4185C15.706 27.495 15.5072 27.5561 15.3084 27.6479C14.8497 27.8314 14.391 28.0149 13.917 28.1831C13.4124 28.3513 12.9536 28.9935 13.1218 29.5898C13.1371 29.651 13.1524 29.7427 13.1371 29.8345Z" fill="#E95051"/>
<path d="M14.2072 16.5468C14.7424 16.1799 15.2929 16.1187 15.8587 16.4704C15.9504 16.5163 15.981 16.501 16.0421 16.4398C16.5773 15.7364 17.7088 15.6753 18.3205 16.501C18.5345 16.608 18.5498 16.8221 18.5957 17.0208C18.6416 17.189 18.6875 17.2961 18.8862 17.342C19.1003 17.3878 19.2685 17.5102 19.4367 17.6478C19.6508 17.8618 19.8801 18.0759 19.8648 18.4276C19.6355 18.7487 19.452 19.0851 19.4214 19.4827C19.4214 19.5285 19.3908 19.5744 19.345 19.5897C19.1921 19.6509 19.0239 19.6203 18.8709 19.6203C18.3511 19.6203 17.8159 19.6203 17.296 19.6203C16.9137 19.6203 16.8831 19.6509 16.8678 20.0179C16.8678 20.0484 16.8526 20.079 16.8526 20.1096C16.7455 20.2166 16.6691 20.1096 16.6079 20.0484C16.2256 19.7426 15.8128 19.5897 15.3388 19.5285C15.0329 19.498 14.7424 19.5438 14.4672 19.6356C14.3449 19.6815 14.2837 19.7579 14.2531 19.8802C14.2072 20.0943 14.1461 20.3084 14.1461 20.5377C14.1461 20.6448 14.1614 20.7518 14.0696 20.8436C13.8097 20.9047 13.6262 20.7365 13.4427 20.5989C13.2592 20.4613 13.1369 20.2931 13.0298 20.0943C12.7393 19.3756 12.9075 18.7181 13.5192 18.2594C13.6415 18.1677 13.6874 18.0912 13.6721 17.9383C13.6262 17.4949 13.7026 17.082 14.0085 16.7303C14.039 16.6233 14.1002 16.5468 14.2072 16.5468Z" fill="#378C35"/>
<path d="M14.2073 16.5469C13.7639 16.9292 13.611 17.4338 13.7027 17.9995C13.718 18.076 13.7333 18.1371 13.6568 18.1983C12.9382 18.657 12.77 19.2993 13.0452 20.0791C12.77 20.2626 12.5253 20.4766 12.2348 20.6448C11.562 20.6601 10.8739 20.6448 10.2011 20.6448C10.1247 20.6448 10.0329 20.6448 9.95645 20.5837C9.88 20.4766 9.89529 20.3696 9.89529 20.2473C9.89529 18.8405 9.89529 17.4491 9.89529 16.0423C9.89529 15.9353 9.88 15.8129 9.95645 15.7059C10.0482 15.6295 10.1399 15.6447 10.247 15.6447C11.4702 15.6447 12.6935 15.6447 13.9015 15.6447C13.9932 15.6447 14.1003 15.6295 14.1767 15.7059C14.2073 15.9964 14.2073 16.2717 14.2073 16.5469Z" fill="#046799"/>
<path d="M26.1799 28.6877C26.0729 28.1525 25.9659 27.6173 25.8588 27.0822C25.7671 26.5929 25.6753 26.1036 25.5989 25.6142C26.4399 25.1249 27.2656 24.6203 28.1066 24.131C28.2136 24.0699 28.3206 24.0087 28.4277 23.9475C28.4888 23.917 28.5653 23.8711 28.6418 23.8711C29.0393 23.9017 29.0546 24.2687 29.2075 24.5133C29.3145 24.6968 29.1922 24.8344 29.0393 24.9262C28.3971 25.3543 27.7396 25.7977 27.0974 26.2259C27.0362 26.2718 26.9445 26.3023 26.8986 26.3941C28.0301 26.18 29.1464 25.9812 30.2626 25.7824C30.599 25.7213 30.706 25.7977 30.7825 26.1494C30.9201 26.7764 30.8895 26.8222 30.2779 26.9446C29.2381 27.1433 28.1983 27.3268 27.128 27.5256C27.2197 27.6173 27.342 27.6173 27.4491 27.6326C28.1524 27.8008 28.8558 27.9537 29.5592 28.1067C29.9109 28.1831 29.9873 28.3054 29.9262 28.6571C29.8191 29.3299 29.7886 29.3299 29.1311 29.2076C28.1524 29.0241 27.1738 28.8559 26.1799 28.6877Z" fill="#8ABE4B"/>
<path d="M12.5866 11.8985C12.5866 12.2961 12.6019 12.7089 12.5866 13.1065C12.5713 13.3206 12.6478 13.3664 12.8466 13.3511C13.4276 13.3206 13.8252 13.6111 14.0851 14.1004C14.1769 14.2839 14.1922 14.4979 14.1922 14.6967C14.1922 15.0178 14.1922 15.3542 14.1922 15.6753C14.131 15.7212 14.0545 15.7059 13.9934 15.7059C12.7242 15.7059 11.4551 15.7059 10.186 15.7059C9.9566 15.7059 9.92602 15.6906 9.92602 15.446C9.91073 15.1555 9.91073 14.8649 9.92602 14.5744C9.9566 13.7946 10.6447 13.2441 11.2716 13.29C11.5774 13.3053 11.8985 13.29 12.2044 13.29C12.2808 13.29 12.3726 13.3053 12.4337 13.2288C12.5102 12.9383 12.449 12.6325 12.4643 12.3266C12.4796 12.189 12.4337 12.0361 12.5102 11.9138C12.5408 11.8832 12.5713 11.8679 12.5866 11.8985Z" fill="#A4DAF4"/>
<path d="M21.5317 16.1952C21.9599 15.8435 22.4339 15.5836 22.9997 15.5224C23.3972 15.4765 23.7948 15.5224 24.1618 15.66C24.2535 15.6906 24.2841 15.7518 24.3147 15.8435C24.4829 16.3481 24.4982 16.8374 24.3605 17.3573C24.33 17.449 24.2841 17.5255 24.2994 17.6172C24.3147 17.6937 24.2688 17.7396 24.2229 17.7701C23.963 17.9689 23.7489 18.2136 23.6419 18.5194C23.6266 18.55 23.596 18.5806 23.5654 18.5958C23.1831 18.6723 22.8009 18.7946 22.5409 19.131C22.4645 19.2228 22.3727 19.1769 22.2963 19.1157C22.1892 18.9017 22.0669 18.7029 21.9752 18.4888C21.9599 18.3665 22.0516 18.29 22.1128 18.2136C22.3574 17.9689 22.6021 17.7243 22.8467 17.4643C22.8926 17.4185 22.9385 17.3726 22.9844 17.3114C23.0608 17.2044 23.0914 17.0821 22.9997 16.975C22.9079 16.8527 22.7856 16.8527 22.648 16.8986C22.5562 16.9291 22.4951 17.0056 22.4339 17.0668C22.1434 17.3573 21.8528 17.6478 21.5623 17.9383C21.5012 17.9995 21.4553 18.0607 21.3635 18.076C21.1495 18.0454 20.9354 18.0148 20.7213 17.9689C20.6602 17.9231 20.6602 17.8466 20.6602 17.7854C20.7366 17.2044 20.9354 16.6845 21.3482 16.2563C21.4094 16.2411 21.4553 16.1952 21.5317 16.1952Z" fill="#8ABE4B"/>
<path d="M9.98723 15.7365C9.98723 17.3573 9.98723 18.9628 9.98723 20.5837C9.77316 20.6907 8.79455 20.6907 8.56519 20.5837C8.56519 18.9628 8.56519 17.3573 8.56519 15.7365C8.58048 15.7212 8.61106 15.6906 8.64164 15.6906C9.06978 15.6447 9.48264 15.6447 9.91078 15.6906C9.94136 15.6906 9.95665 15.7212 9.98723 15.7365Z" fill="#035C89"/>
<path d="M8.5651 20.5835C9.03911 20.5835 9.51313 20.5835 9.98714 20.5835C10.767 20.5835 11.5315 20.5835 12.3114 20.5988C12.3266 20.66 12.2808 20.6752 12.2349 20.6905C11.6691 20.7364 11.1034 20.7058 10.5376 20.7058C10.0177 20.7211 10.0483 20.66 10.0483 21.1798C10.0483 21.9903 10.0483 22.8007 10.0483 23.6111C10.0483 23.7181 10.0483 23.8404 10.033 23.9475C10.0177 24.0239 9.95656 24.0851 9.88011 24.1157C9.63545 24.1921 9.49784 24.3756 9.42138 24.605C9.11557 24.7426 8.82504 24.9108 8.5498 25.1096C8.5651 23.5958 8.5651 22.0973 8.5651 20.5835Z" fill="#8FC7DF"/>
<path d="M21.5317 16.1951C21.0577 16.6997 20.7672 17.2808 20.7519 17.9842C20.6143 18.1218 20.4461 18.1218 20.2779 18.1524C20.1555 18.1218 20.1097 17.9995 20.0332 17.923C19.865 17.7395 19.6815 17.6172 19.4216 17.6783C19.2075 17.5254 18.9782 17.3878 18.7029 17.3572C18.6112 17.3419 18.5959 17.2961 18.5959 17.2196C18.5653 16.9597 18.4736 16.7303 18.3359 16.5162C18.9629 15.9046 19.5745 15.2777 20.2014 14.666C20.4614 14.4061 20.5378 14.4061 20.7978 14.6813C21.18 15.0942 21.4094 15.6141 21.5317 16.1951Z" fill="#E95051"/>
<path d="M12.5867 11.8984H12.5714H12.5561C12.4643 11.9595 12.3726 11.9595 12.2656 11.9595C11.6692 11.9595 11.0729 11.9595 10.4918 11.9595C10.4001 11.9595 10.293 11.9595 10.2166 11.8984C10.0943 11.8678 9.95665 11.9289 9.84961 11.8372C10.0178 11.7149 10.2166 11.776 10.4001 11.776C10.5836 11.776 10.66 11.7149 10.6447 11.5314C10.6294 11.0879 10.6447 10.6292 10.6447 10.1858C10.6447 10.0635 10.6447 9.92584 10.6906 9.80351C10.4307 9.78822 10.1707 9.87997 9.92606 9.72706C10.0025 9.68119 10.0943 9.69648 10.1707 9.69648C10.9964 9.69648 11.8068 9.69648 12.6325 9.69648C13.0148 9.69648 13.0607 9.74235 13.0607 10.1399C13.0607 10.5528 13.0607 10.9809 13.0607 11.3938C13.0607 11.8525 13.0454 11.8678 12.5867 11.8984Z" fill="#046799"/>
<path d="M23.5808 18.5653C23.6878 18.2136 23.9019 17.923 24.223 17.709C24.2536 17.6784 24.2842 17.6478 24.3148 17.6019C24.3606 17.6019 24.4065 17.6019 24.4524 17.5866C25.5075 17.1126 26.7766 18.0301 26.5166 19.3298C26.5014 19.3604 26.4861 19.391 26.4555 19.391C26.0426 19.5286 25.7215 19.8038 25.3851 20.0485C25.2016 20.0485 25.0487 19.9567 24.8805 19.9109C24.7735 19.8956 24.7582 19.7885 24.7429 19.6968C24.6665 19.131 24.3301 18.7946 23.7796 18.657C23.7184 18.657 23.6267 18.657 23.5808 18.5653Z" fill="#FCC30A"/>
<path d="M25.4155 20.0485C25.706 19.6968 26.0883 19.4828 26.5164 19.3452C26.9752 19.2228 27.4339 19.2381 27.8926 19.3757C28.015 19.4063 28.0761 19.4828 28.122 19.6051C28.3514 20.3391 28.229 21.0119 27.8468 21.6541C27.6786 21.7305 27.4951 21.6847 27.3116 21.6847C26.9905 21.6847 26.6694 21.6847 26.333 21.6847C26.3177 21.5776 26.3941 21.5317 26.4553 21.4706C26.5929 21.333 26.7305 21.2106 26.8529 21.0577C27.021 20.8742 27.0363 20.7213 26.914 20.599C26.7917 20.4767 26.6082 20.492 26.4247 20.6449C26.3483 20.7213 26.2718 20.7978 26.1953 20.8742C26.1342 20.9201 26.0883 20.9966 25.9966 20.966C25.9354 20.9048 25.9048 20.8284 25.8895 20.7519C25.8284 20.5531 25.706 20.3849 25.5531 20.2473C25.492 20.1861 25.4002 20.1403 25.4155 20.0485Z" fill="#8ABE4B"/>
<path d="M9.98708 15.7364C9.51306 15.7364 9.03905 15.7364 8.58032 15.7364C8.58032 15.4 8.58032 15.0483 8.58032 14.7119C8.58032 13.8709 9.13079 13.3663 10.0482 13.3204C10.1094 13.3204 10.1706 13.3204 10.2317 13.3052C10.3082 13.2287 10.4152 13.2287 10.507 13.2287C11.1033 13.2287 11.6997 13.2287 12.2807 13.2287C12.3725 13.2287 12.4795 13.2287 12.5559 13.3052C12.4795 13.3816 12.403 13.351 12.3266 13.351C11.9596 13.351 11.5926 13.3663 11.2256 13.351C10.6293 13.3204 10.0024 13.9015 9.97179 14.5896C9.9565 14.8801 9.98708 15.1706 9.97179 15.4612C9.97179 15.6447 10.033 15.6905 10.2164 15.6905C11.5467 15.6752 12.8618 15.6905 14.1921 15.6905C14.1921 15.7058 14.1921 15.7211 14.1921 15.7364C12.7853 15.7364 11.3938 15.7364 9.98708 15.7364Z" fill="#8FC7DF"/>
<path d="M12.5409 13.3052C11.7611 13.3052 10.9812 13.3052 10.2014 13.3052C10.2014 12.8312 10.2014 12.3572 10.2014 11.8984C10.9812 11.8984 11.7611 11.8984 12.5409 11.8984C12.5409 12.3572 12.5409 12.8312 12.5409 13.3052Z" fill="#4CBFDE"/>
<path d="M9.92599 9.72705C10.2012 9.72705 10.4917 9.72705 10.7976 9.72705C10.7058 9.86467 10.7058 9.9717 10.7211 10.0787C10.7211 10.6445 10.6905 11.195 10.7364 11.7454C10.7517 11.8678 10.6599 11.8372 10.5988 11.8372C10.3541 11.8372 10.0942 11.8372 9.84953 11.8372C9.7425 11.8066 9.71191 11.7149 9.71191 11.6078C9.71191 11.0726 9.71191 10.5375 9.71191 10.0023C9.71191 9.84938 9.75779 9.74234 9.92599 9.72705Z" fill="#055C8A"/>
<path d="M18.5044 30.6298C18.4433 30.2475 18.3668 29.8652 18.3056 29.4676C18.3056 29.4371 18.2903 29.4065 18.2903 29.3759C18.2445 29.0701 18.3362 28.8866 18.5503 28.856C18.7797 28.8254 18.9173 28.9783 18.9631 29.2842C19.0396 29.7276 19.1161 30.171 19.1925 30.6145C18.9479 30.6603 18.7338 30.6603 18.5044 30.6298Z" fill="#FCC30A"/>
<path d="M22.0668 30.6296C22.0056 30.2779 21.9291 29.9263 21.868 29.5746C21.8374 29.3911 21.9444 29.2076 22.1279 29.1617C22.3114 29.1158 22.4337 29.2229 22.4949 29.3758C22.6172 29.6816 22.6172 30.018 22.6937 30.3238C22.7243 30.4156 22.7243 30.5226 22.7396 30.6143C22.5255 30.6602 22.2961 30.6602 22.0668 30.6296Z" fill="#FCC30A"/>
<path d="M9.43679 24.6051C9.37563 24.3605 9.52854 24.2229 9.71203 24.1311C9.80377 24.0852 9.89552 24.0547 9.98726 24.0088C10.0637 23.917 10.1708 23.9017 10.2778 23.8865C10.7059 23.8406 11.1188 23.8253 11.5469 23.917C11.5928 23.9323 11.6387 23.9476 11.6845 23.9629C11.9292 24.0852 12.1586 24.0699 12.4032 23.9476C12.7855 23.7794 13.1678 23.9323 13.55 23.917C13.8711 23.9629 14.177 24.0088 14.4522 24.1923C14.6051 24.284 14.6968 24.4063 14.6204 24.6051C14.3757 24.8956 13.9935 24.9262 13.6571 25.018C13.7641 25.1556 13.8864 25.2626 13.9629 25.385C14.1464 25.6602 14.0393 25.8743 13.7029 25.8896C13.4277 25.9048 13.1678 25.8284 12.9231 25.7366C12.6479 25.6296 12.3879 25.5073 12.1586 25.3238C12.0515 25.232 11.9904 25.2626 11.8833 25.3391C11.4552 25.6449 10.9965 25.8437 10.4766 25.8896C10.3084 25.9048 10.1402 25.9048 10.0484 25.7366C9.95668 25.5684 10.0637 25.4155 10.1708 25.2779C10.2013 25.232 10.2472 25.1862 10.2931 25.1403C10.3237 25.0944 10.4001 25.0791 10.3695 25.018C10.339 24.9568 10.2625 24.9721 10.2013 24.9721C9.9261 24.9109 9.63557 24.8345 9.43679 24.6051Z" fill="#378C35"/>
<path d="M16.7916 20.1249C16.7916 19.5438 16.7916 19.5438 17.4032 19.5438C18.0607 19.5438 18.7182 19.5438 19.3757 19.5438C19.4522 19.4673 19.5592 19.4673 19.651 19.4673C20.5531 19.4673 21.44 19.4673 22.3421 19.4673C22.4951 19.4826 22.648 19.4673 22.8009 19.4826C22.9844 19.4979 23.122 19.5897 23.1373 19.7732C23.1984 20.4765 22.9691 21.0882 22.5562 21.6539C22.5409 21.6692 22.5103 21.6845 22.4951 21.6845C20.7978 21.6998 19.1005 21.6998 17.4032 21.6845C17.2656 21.6234 17.2044 21.4857 17.128 21.3634C16.9445 21.0576 16.8374 20.7059 16.761 20.3542C16.7457 20.2625 16.7304 20.186 16.7916 20.1249Z" fill="#E95051"/>
<path d="M22.4801 21.6693C22.7094 21.3023 22.9082 20.9047 23.0152 20.4766C23.0611 20.2625 23.0764 20.0484 23.0764 19.8191C23.0764 19.6356 22.9694 19.5438 22.8012 19.5438C22.6636 19.5438 22.5259 19.5438 22.3883 19.5438C22.3119 19.4062 22.2507 19.2533 22.3424 19.0851C22.4036 19.1157 22.4648 19.1921 22.5259 19.1004C22.7859 18.7487 23.1529 18.6111 23.581 18.5805C23.8868 18.6417 24.1926 18.7181 24.422 18.9475C24.6361 19.1616 24.789 19.4062 24.8196 19.712C24.8349 19.8344 24.8807 19.8955 25.003 19.9108C25.1407 19.9261 25.2783 20.0026 25.4159 20.0484C25.7217 20.2778 25.9358 20.5836 26.0122 20.9659C26.104 21.2258 26.1193 21.4705 25.9052 21.6845C24.7584 21.6693 23.6269 21.6693 22.4801 21.6693Z" fill="#378C35"/>
<path d="M15.8894 27.3422C16.1341 27.2504 16.3787 27.1434 16.6234 27.0516C17.4338 26.7458 18.2442 26.44 19.0546 26.1342C19.5133 25.966 19.9721 25.7978 20.4155 25.6296C20.5837 25.966 20.706 26.2871 20.6449 26.6694C19.2075 27.2198 17.7855 27.755 16.3481 28.3055C16.2717 28.3361 16.1952 28.3819 16.1188 28.3208C15.9659 28.0149 15.92 27.6786 15.8894 27.3422Z" fill="#DE831C"/>
<path d="M16.7917 20.1249C16.8529 20.6906 17.067 21.2105 17.3881 21.6692C17.174 21.6692 16.9599 21.6692 16.7458 21.6692C16.6235 21.6386 16.5471 21.5316 16.4553 21.4552C16.2413 21.2411 16.0425 21.027 15.8131 20.8282C15.6296 20.66 15.4767 20.66 15.3544 20.7976C15.2473 20.92 15.2626 21.0729 15.4308 21.2411C15.5073 21.3175 15.599 21.394 15.6755 21.4857C15.7214 21.5469 15.7978 21.5928 15.7367 21.6845C15.2626 21.6845 14.7886 21.6845 14.3299 21.6845C14.1158 21.4399 14.0852 21.1188 14.0088 20.8282C14.1005 20.6142 14.0088 20.3695 14.0852 20.1401C14.1005 20.1249 14.0852 20.0943 14.0852 20.079C14.1617 19.6508 14.284 19.5591 14.7275 19.4979C15.5379 19.3603 16.1954 19.6203 16.7917 20.1249Z" fill="#8ABE4B"/>
<path d="M25.5535 25.4308C25.4923 25.5072 25.4464 25.4308 25.4006 25.4155C25.0489 25.232 24.6972 25.1555 24.3149 25.3084C23.4586 25.6296 22.6176 25.9507 21.7613 26.2718C21.6237 26.3176 21.4708 26.3635 21.3332 26.4247C21.3179 26.4247 21.3026 26.4247 21.2873 26.4247C21.1497 26.1036 21.0274 25.7825 21.058 25.4155C22.0213 25.0332 22.9693 24.6357 23.9479 24.3298C24.743 24.0546 25.477 24.6051 25.5535 25.4308Z" fill="#DE841C"/>
<path d="M13.5501 23.917C13.1525 23.917 12.7549 23.8864 12.3727 24.0088C12.2503 23.8864 12.2962 23.7335 12.2962 23.5959C12.2809 23.2901 12.2198 23.1831 12.0363 23.1678C11.8528 23.1678 11.7457 23.3054 11.7305 23.5959C11.7152 23.7335 11.7763 23.8864 11.654 24.0088C11.6234 24.0088 11.5928 24.0088 11.5623 23.9782C11.3941 23.5653 11.3635 23.1372 11.3176 22.709C11.3023 22.5103 11.2717 22.2962 11.2717 22.0974C11.2717 21.761 11.3941 21.6387 11.7152 21.6234C11.8069 21.6234 11.8987 21.6081 11.9904 21.6081C12.2198 21.6234 12.4338 21.6234 12.6632 21.6234C12.7549 21.6234 12.862 21.6081 12.9384 21.6998C12.8008 21.8527 12.8008 22.0209 12.8161 22.2197C12.8467 22.6632 12.8926 23.1066 12.969 23.55C13.0149 23.81 13.076 23.9476 13.3666 23.8864C13.443 23.8711 13.5042 23.8711 13.5501 23.917Z" fill="#CECFD3"/>
<path d="M12.9536 21.6845C12.709 21.6845 12.4796 21.6845 12.2349 21.6692C12.1585 21.6692 12.0667 21.6845 12.0056 21.6233C11.9138 21.5316 11.9291 21.4245 11.9597 21.3328C12.0056 21.0729 12.0362 20.7976 12.2808 20.6294C12.2961 20.6141 12.2961 20.5988 12.3114 20.5835C12.5102 20.3542 12.7548 20.1554 13.0454 20.0637C13.29 20.4153 13.5653 20.7212 14.0087 20.8129C14.131 20.8741 14.0851 20.9964 14.131 21.0881C14.2075 21.2716 14.2686 21.4704 14.3451 21.6539C13.8711 21.6692 13.4123 21.6845 12.9536 21.6845Z" fill="#FCC30A"/>
<path d="M21.0578 25.3849C21.1496 25.7213 21.1955 26.073 21.3331 26.3941C21.3484 26.4858 21.3637 26.5776 21.3789 26.6693C21.4095 26.8681 21.3025 27.0363 21.1496 27.0822C20.9508 27.128 20.7826 27.0363 20.7061 26.8222C20.6909 26.7764 20.7061 26.7152 20.6603 26.6846C20.6144 26.3329 20.4921 25.9965 20.4309 25.6448C20.6297 25.5225 20.8285 25.4308 21.0578 25.3849Z" fill="#FCC30A"/>
<path d="M15.7517 21.6692C15.6752 21.4857 15.507 21.3787 15.3847 21.241C15.2318 21.0728 15.2012 20.8893 15.3235 20.7517C15.4764 20.5835 15.6599 20.5682 15.8434 20.7364C16.1645 21.027 16.455 21.3481 16.7609 21.6539C16.4245 21.6692 16.0881 21.6692 15.7517 21.6692Z" fill="#D1DB66"/>
<path d="M25.905 21.6692C26.0121 21.4398 26.0121 21.1952 26.0121 20.9505C26.1344 20.8282 26.2567 20.7059 26.3943 20.5836C26.5778 20.4001 26.7919 20.3848 26.9448 20.5224C27.113 20.6753 27.0977 20.8741 26.9142 21.0729C26.7307 21.2716 26.532 21.4704 26.3485 21.6692C26.1803 21.6692 26.0426 21.6692 25.905 21.6692Z" fill="#D1DB66"/>
<path d="M13.137 29.8346C12.8159 29.1924 13.1523 28.4431 13.6875 28.1985C14.2074 27.9538 14.7426 27.7856 15.2778 27.5869C15.3848 27.6939 15.3848 27.8315 15.4001 27.9691C15.4307 28.1985 15.5377 28.4126 15.5071 28.6572C14.8955 28.8866 14.2839 29.1159 13.6722 29.3453C13.4429 29.4218 13.3052 29.6511 13.137 29.8346Z" fill="#DE831C"/>
<path d="M23.9785 30.6144C23.9021 30.1557 23.8103 29.697 23.7339 29.2382C23.688 28.9783 23.7798 28.7948 24.0091 28.7489C24.162 28.7184 24.3455 28.856 24.3914 29.07C24.4831 29.5288 24.5749 29.9875 24.6666 30.4462C24.6819 30.5532 24.6513 30.6144 24.529 30.6144C24.3455 30.6144 24.162 30.6144 23.9785 30.6144Z" fill="#FCC30A"/>
<path d="M15.5223 28.6418C15.4 28.3055 15.3541 27.9385 15.293 27.5868C15.4765 27.4797 15.6905 27.4186 15.8893 27.3574C16.0422 27.6632 16.0575 27.9996 16.134 28.3207C16.134 28.4737 16.134 28.6266 15.9658 28.7183C15.7976 28.8101 15.6599 28.7336 15.5223 28.6418Z" fill="#FCC30A"/>
<path d="M22.3423 19.0699C22.3576 19.2228 22.3729 19.3757 22.3882 19.5286C21.379 19.5286 20.3698 19.5286 19.3606 19.5286C19.3606 19.0852 19.5288 18.7029 19.8346 18.3818C19.9111 18.2136 20.064 18.1371 20.2322 18.1066C20.4004 18.0607 20.5686 18.0148 20.7368 17.9689C20.9661 17.9384 21.1955 18.0148 21.4249 18.0607C21.6848 18.1066 21.8836 18.2289 22.0059 18.4735C22.1588 18.657 22.2506 18.8711 22.3423 19.0699Z" fill="#F29222"/>
<path d="M14.5132 18.137C14.5132 17.7395 14.819 17.3266 15.2319 17.189C15.6447 17.0514 16.1493 17.1737 16.394 17.4948C16.501 17.6324 16.5163 17.8006 16.394 17.9383C16.2716 18.0759 16.1187 18.1065 15.9658 17.9994C15.9199 17.9688 15.8741 17.9383 15.8282 17.9077C15.5683 17.7395 15.2777 17.8465 15.2013 18.1676C15.1554 18.3205 15.1248 18.4887 14.9413 18.5346C14.6814 18.5805 14.5132 18.4276 14.5132 18.137Z" fill="#8ABE4B"/>
<path d="M17.3879 18.0301C17.7855 18.0454 18.076 18.2594 18.2595 18.6264C18.3359 18.7946 18.3053 18.9628 18.1371 19.0698C17.9689 19.1769 17.816 19.131 17.6937 18.9934C17.6631 18.9628 17.6478 18.9322 17.6325 18.9016C17.4643 18.6723 17.2503 18.6723 17.0974 18.9016C17.0056 19.024 16.9292 19.1463 16.7457 19.1463C16.5316 19.131 16.3787 18.9322 16.4399 18.7182C16.5163 18.3359 16.9597 18.0148 17.3879 18.0301Z" fill="#8ABE4B"/>
<path d="M20.2322 18.1064C20.0946 18.1982 19.9723 18.2899 19.8346 18.3817C19.7888 18.0911 19.6053 17.8618 19.4065 17.6477C19.5594 17.5254 19.7123 17.5713 19.8346 17.663C20.0028 17.8006 20.1557 17.9229 20.2322 18.1064Z" fill="#BF292E"/>
<path d="M22.0056 18.4736C21.8374 18.3054 21.6386 18.1678 21.4246 18.0607C21.7915 17.6785 22.1738 17.2962 22.5408 16.9292C22.6937 16.7763 22.9231 16.7916 23.0607 16.9292C23.183 17.0668 23.1677 17.2503 23.0148 17.4185C22.7396 17.709 22.449 17.9843 22.1585 18.2748C22.0974 18.336 22.0362 18.3818 22.0056 18.4736Z" fill="#D1DB66"/>
<path d="M12.2807 20.6295C12.0972 20.9353 11.9902 21.2717 12.0055 21.6234C11.9137 21.7151 11.8067 21.6692 11.6996 21.6692C11.455 21.6845 11.3479 21.761 11.3632 22.0209C11.3785 22.4185 11.4244 22.8008 11.4703 23.1983C11.5009 23.4583 11.6232 23.7029 11.5926 23.9782C11.0574 23.8864 10.5222 23.8864 9.98706 24.0087C9.98706 22.969 9.98706 21.9139 9.98706 20.8741C9.98706 20.6906 10.0176 20.6142 10.2164 20.6295C10.9045 20.6448 11.5926 20.6295 12.2807 20.6295Z" fill="#A4DAF4"/>
<path d="M20.6449 15.7364C20.6449 15.8281 20.6143 15.9199 20.5532 15.981C20.4461 16.1034 20.3391 16.2104 20.2168 16.3174C20.0792 16.4398 19.9263 16.4703 19.7734 16.3327C19.6204 16.1951 19.6052 16.0116 19.7428 15.8434C19.8498 15.7211 19.9721 15.5988 20.0945 15.4917C20.2015 15.4 20.3391 15.3694 20.4614 15.4459C20.5532 15.507 20.6602 15.5835 20.6449 15.7364Z" fill="#BF282E"/>
<path d="M20.2779 17.3725C20.1556 17.3725 20.018 17.3878 19.8956 17.3266C19.7427 17.2501 19.6969 17.1278 19.7274 16.9749C19.758 16.822 19.8498 16.715 20.018 16.6997C20.1709 16.6844 20.3391 16.6997 20.492 16.6997C20.7214 16.6997 20.8437 16.822 20.859 17.0208C20.8743 17.189 20.7366 17.3419 20.5379 17.3725C20.4461 17.3878 20.3697 17.3725 20.2779 17.3725Z" fill="#BF282E"/>
<path d="M11.6692 24.0087C11.6692 23.8405 11.6692 23.6723 11.6845 23.5041C11.6998 23.2289 11.8221 23.0912 12.0515 23.0912C12.2655 23.0912 12.3726 23.2289 12.3726 23.5041C12.3726 23.6723 12.3726 23.8405 12.3726 24.0087C12.1432 24.1463 11.8986 24.131 11.6692 24.0087Z" fill="#8BBE4B"/>
<path d="M18.0762 20.7671C18.015 20.7671 17.8927 20.7824 17.7857 20.7365C17.6327 20.6753 17.5257 20.553 17.541 20.3848C17.5563 20.2013 17.6786 20.079 17.8774 20.079C18.0303 20.079 18.1832 20.079 18.3361 20.079C18.5502 20.079 18.6878 20.2013 18.7031 20.4001C18.7031 20.5683 18.5655 20.7212 18.382 20.7518C18.2903 20.7671 18.2138 20.7671 18.0762 20.7671Z" fill="#BF282E"/>
<path d="M21.7458 20.079C21.8069 20.079 21.8834 20.079 21.9445 20.079C22.1739 20.079 22.2962 20.2013 22.2962 20.4154C22.2962 20.6142 22.1586 20.7518 21.9598 20.7671C21.8222 20.7824 21.6846 20.7824 21.547 20.7671C21.3329 20.7518 21.1494 20.5989 21.1494 20.4307C21.1494 20.2319 21.3023 20.0943 21.547 20.0943C21.6234 20.079 21.6846 20.079 21.7458 20.079Z" fill="#BF282E"/>
<path d="M21.1495 21.6386C20.9202 21.715 20.7672 21.5315 20.6296 21.3633C20.5073 21.2104 20.5379 20.9964 20.6602 20.8893C20.7825 20.7823 21.0119 20.7976 21.1342 20.9199C21.2413 21.0269 21.3483 21.134 21.4553 21.241C21.5318 21.3328 21.593 21.4398 21.5471 21.5468C21.5012 21.6845 21.3636 21.6233 21.2718 21.6386C21.2413 21.6386 21.2107 21.6386 21.1495 21.6386Z" fill="#BF282E"/>
<path d="M18.6721 21.6386C18.5804 21.6386 18.5345 21.6386 18.4734 21.6386C18.3052 21.6386 18.244 21.5469 18.3052 21.4092C18.4122 21.134 18.611 20.9505 18.8556 20.8282C18.978 20.767 19.1309 20.7976 19.2226 20.9352C19.3144 21.0728 19.3296 21.2258 19.2073 21.3634C19.0544 21.5316 18.9015 21.7304 18.6721 21.6386Z" fill="#BF282E"/>
<path d="M19.9414 21.654C19.8343 21.5776 19.605 21.7763 19.605 21.4858C19.605 21.3023 19.7732 21.1188 19.9414 21.1188C20.1402 21.1188 20.2778 21.2565 20.2931 21.4705C20.2931 21.761 20.0637 21.5929 19.9414 21.654Z" fill="#C0292F"/>
</svg>
