<svg width="39" height="40" viewBox="0 0 39 40" fill="none" xmlns="http://www.w3.org/2000/svg">
<path d="M19.2287 37.1741C28.6025 37.1741 36.2015 29.5751 36.2015 20.2013C36.2015 10.8274 28.6025 3.22845 19.2287 3.22845C9.85485 3.22845 2.25586 10.8274 2.25586 20.2013C2.25586 29.5751 9.85485 37.1741 19.2287 37.1741Z" fill="white"/>
<path d="M17.149 29.9569L16.6903 27.0975C16.3998 26.9905 16.094 26.8529 15.7882 26.6694C15.4671 26.4859 15.1918 26.3024 14.9472 26.1036L12.2713 27.3269L10.1611 23.6112L12.6077 21.8222C12.5771 21.6845 12.5618 21.5316 12.5465 21.3634C12.5312 21.1952 12.5312 21.0423 12.5312 20.9047C12.5312 20.7671 12.5312 20.6142 12.5465 20.446C12.5618 20.2778 12.5771 20.1249 12.6077 19.9873L10.1611 18.1982L12.2713 14.4826L14.9472 15.7058C15.1918 15.507 15.4671 15.3236 15.7882 15.1401C16.1093 14.9566 16.4151 14.819 16.6903 14.7272L17.149 11.8525H21.3234L21.7669 14.6813C22.0574 14.7884 22.3632 14.926 22.6843 15.0942C23.0054 15.2624 23.2807 15.4612 23.51 15.6752L26.1859 14.452L28.2961 18.1677L25.8495 19.9108C25.8801 20.0637 25.8954 20.2319 25.9107 20.4001C25.926 20.5683 25.926 20.7365 25.926 20.8894C25.926 21.0423 25.926 21.1952 25.9107 21.3634C25.9107 21.5316 25.8801 21.6845 25.8495 21.8375L28.2961 23.6112L26.1859 27.3269L23.51 26.1036C23.2654 26.3024 22.9901 26.4859 22.6843 26.6847C22.3785 26.8681 22.0727 27.0058 21.7669 27.0975L21.3082 29.9569H17.149ZM19.2286 23.8406C20.039 23.8406 20.7424 23.55 21.3082 22.9843C21.8892 22.4032 22.1644 21.7151 22.1644 20.9047C22.1644 20.0943 21.8739 19.3909 21.3082 18.8252C20.7271 18.2441 20.039 17.9689 19.2286 17.9689C18.4182 17.9689 17.7148 18.2594 17.149 18.8252C16.5833 19.3909 16.2928 20.0943 16.2928 20.9047C16.2928 21.7151 16.5833 22.4185 17.149 22.9843C17.7148 23.55 18.4182 23.8406 19.2286 23.8406ZM19.2286 22.4797C18.7852 22.4797 18.4182 22.3268 18.1124 22.0209C17.8066 21.7151 17.6536 21.3329 17.6536 20.9047C17.6536 20.4766 17.8066 20.0943 18.1124 19.7885C18.4182 19.4827 18.8005 19.3298 19.2286 19.3298C19.672 19.3298 20.039 19.4827 20.3448 19.7885C20.6506 20.0943 20.8036 20.4766 20.8036 20.9047C20.8036 21.3329 20.6506 21.7151 20.3448 22.0209C20.039 22.3268 19.672 22.4797 19.2286 22.4797ZM18.2347 28.596H20.2225L20.5436 26.0577C21.0482 25.9354 21.5069 25.7519 21.9657 25.492C22.4091 25.232 22.8219 24.9262 23.1736 24.5592L25.5743 25.599L26.4765 23.9629L24.351 22.4032C24.4122 22.1433 24.4581 21.8986 24.5039 21.6387C24.5345 21.394 24.5651 21.1341 24.5651 20.8741C24.5651 20.6142 24.5498 20.3695 24.5192 20.1096C24.4886 19.8649 24.4428 19.605 24.3663 19.345L26.4917 17.7854L25.5896 16.1493L23.1889 17.189C22.8372 16.7915 22.455 16.4704 22.0115 16.2104C21.5681 15.9505 21.0941 15.7823 20.5589 15.7058L20.2378 13.1676H18.25L17.9289 15.7058C17.409 15.8129 16.935 15.9964 16.4915 16.2563C16.0481 16.5162 15.6505 16.8374 15.2989 17.2043L12.8829 16.1646L11.9807 17.8007L14.1062 19.3603C14.045 19.6203 13.9991 19.8649 13.9533 20.1249C13.9227 20.3695 13.8921 20.6295 13.8921 20.8894C13.8921 21.1494 13.9074 21.394 13.9533 21.654C13.9838 21.8986 14.045 22.1586 14.1062 22.4185L11.9807 23.9782L12.8829 25.6143L15.2836 24.5745C15.6505 24.9415 16.0481 25.2473 16.4915 25.5073C16.935 25.7672 17.409 25.9507 17.9136 26.073L18.2347 28.596Z" fill="#1D1D1B"/>
</svg>
