<svg width="38" height="40" viewBox="0 0 38 40" fill="none" xmlns="http://www.w3.org/2000/svg">
<path d="M18.8383 37.4341C28.2121 37.4341 35.8111 29.8351 35.8111 20.4613C35.8111 11.0875 28.2121 3.48846 18.8383 3.48846C9.46447 3.48846 1.86548 11.0875 1.86548 20.4613C1.86548 29.8351 9.46447 37.4341 18.8383 37.4341Z" fill="white"/>
<path d="M18.8383 32.2353C17.3092 32.2353 15.9942 31.7001 14.9238 30.6145C13.8382 29.5288 13.303 28.2291 13.303 26.7V16.7151C12.6914 16.7151 12.1715 16.501 11.7434 16.0576C11.3152 15.6142 11.0706 15.1096 11.0706 14.4979V12.2808C11.0706 11.6691 11.2846 11.1492 11.7281 10.7211C12.1715 10.293 12.6914 10.0636 13.2877 10.0636H24.3736C24.9852 10.0636 25.5051 10.2777 25.9332 10.7211C26.3614 11.1645 26.5908 11.6844 26.5908 12.2808V14.4979C26.5908 15.1096 26.3767 15.6295 25.9332 16.0576C25.4898 16.4857 24.9699 16.7151 24.3736 16.7151V26.7C24.3736 28.2291 23.8384 29.5441 22.7528 30.6145C21.6824 31.7001 20.3674 32.2353 18.8383 32.2353ZM12.7373 15.0637H24.9241V11.7303H12.7373V15.0637ZM18.8383 30.5839C19.7863 30.5839 20.5967 30.2934 21.2848 29.7276C21.9729 29.1619 22.4316 28.4279 22.6304 27.541H18.8383V25.8743H22.7222V24.2076H18.8383V22.5409H22.7222V20.8742H18.8383V19.2075H22.7222V16.7151H14.9544V26.7C14.9544 27.7704 15.3367 28.6878 16.086 29.4524C16.8505 30.2016 17.7527 30.5839 18.8383 30.5839Z" fill="#E7A81F"/>
</svg>
