<svg width="52" height="51" viewBox="0 0 52 51" fill="none" xmlns="http://www.w3.org/2000/svg">
<path d="M26.1483 46.899C37.701 46.899 47.0662 37.5338 47.0662 25.9812C47.0662 14.4285 37.701 5.06329 26.1483 5.06329C14.5957 5.06329 5.23047 14.4285 5.23047 25.9812C5.23047 37.5338 14.5957 46.899 26.1483 46.899Z" fill="white"/>
<path d="M17.1268 25.9353C16.3928 25.9353 15.7659 25.6753 15.2766 25.1707C14.772 24.6661 14.5273 24.0392 14.5273 23.3052C14.5273 22.5713 14.7873 21.9443 15.2919 21.455C15.7965 20.9504 16.4234 20.7058 17.1574 20.7058C17.8913 20.7058 18.5183 20.9657 19.0076 21.4703C19.5122 21.9749 19.7568 22.6019 19.7568 23.3358C19.7568 24.0698 19.4969 24.6967 18.9923 25.186C18.4724 25.6906 17.8607 25.9353 17.1268 25.9353ZM22.5092 20.9963C21.7752 20.9963 21.1483 20.7364 20.659 20.2318C20.1697 19.7272 19.9097 19.1002 19.9097 18.3663C19.9097 17.6323 20.1697 17.0054 20.6743 16.5161C21.1789 16.0115 21.8058 15.7668 22.5397 15.7668C23.2737 15.7668 23.9006 16.0268 24.3899 16.5314C24.8945 17.036 25.1392 17.6629 25.1392 18.3969C25.1392 19.1308 24.8792 19.7578 24.3746 20.2471C23.8548 20.7517 23.2431 20.9963 22.5092 20.9963ZM29.7723 20.9963C29.0383 20.9963 28.4114 20.7364 27.9221 20.2318C27.4175 19.7272 27.1729 19.1002 27.1729 18.3663C27.1729 17.6323 27.4328 17.0054 27.9374 16.5161C28.442 16.0115 29.0689 15.7668 29.8029 15.7668C30.5369 15.7668 31.1638 16.0268 31.6531 16.5314C32.1577 17.036 32.4023 17.6629 32.4023 18.3969C32.4023 19.1308 32.1424 19.7578 31.6378 20.2471C31.1332 20.7517 30.5063 20.9963 29.7723 20.9963ZM35.1547 25.9353C34.4207 25.9353 33.7938 25.6753 33.3045 25.1707C32.7999 24.6661 32.5552 24.0392 32.5552 23.3052C32.5552 22.5713 32.8152 21.9443 33.3198 21.455C33.8244 20.9504 34.4513 20.7058 35.1853 20.7058C35.9192 20.7058 36.5462 20.9657 37.0355 21.4703C37.5248 21.9749 37.7847 22.6019 37.7847 23.3358C37.7847 24.0698 37.5248 24.6967 37.0202 25.186C36.5156 25.6906 35.8886 25.9353 35.1547 25.9353ZM19.925 37.8621C19.1146 37.8621 18.4418 37.5563 17.9219 36.9447C17.402 36.333 17.1421 35.6144 17.1421 34.7734C17.1421 33.9629 17.3867 33.229 17.8913 32.6021C18.3806 31.9751 18.9158 31.3635 19.4816 30.7824C19.9097 30.3543 20.3073 29.9109 20.6743 29.4369C21.0412 28.9628 21.3929 28.4735 21.714 27.9689C22.2798 27.1126 22.9067 26.3175 23.6101 25.5836C24.3135 24.8496 25.1545 24.4826 26.1637 24.4826C27.1729 24.4826 28.0292 24.8496 28.7325 25.5836C29.4359 26.3175 30.0781 27.1279 30.6439 27.9995C30.9803 28.5041 31.3167 28.9934 31.6837 29.4521C32.0354 29.9109 32.4329 30.3696 32.8611 30.7977C33.4268 31.3788 33.9467 31.9904 34.4513 32.6173C34.9406 33.2443 35.2006 33.9629 35.2006 34.7886C35.2006 35.6144 34.9406 36.3483 34.4207 36.9599C33.9008 37.5716 33.228 37.8774 32.4176 37.8774C31.3778 37.8774 30.3381 37.7857 29.2983 37.6175C28.2738 37.4493 27.234 37.3575 26.179 37.3575C25.1392 37.3575 24.0994 37.4493 23.0596 37.6175C22.0046 37.7857 20.9648 37.8621 19.925 37.8621Z" fill="#1D1D1B"/>
</svg>
