<svg width="119" height="26" viewBox="0 0 119 26" fill="none" xmlns="http://www.w3.org/2000/svg">
<path fill-rule="evenodd" clip-rule="evenodd" d="M10.074 1.38C8.086 2.09 5.006 3.706 3.23 4.971L0 7.271L8.831 16.142L17.661 25.014L26.675 15.972L35.689 6.93L33.189 4.967C30.037 2.493 21.926 -0.0140013 17.257 0.0439987C15.295 0.0679987 12.062 0.669001 10.074 1.38ZM67.189 12.5V25H90.689H114.189V21.406C114.189 18.654 114.657 17.69 116.189 17.29C117.805 16.867 118.189 15.926 118.189 12.383C118.189 8.667 117.885 8 116.189 8C114.522 8 114.189 7.333 114.189 4V0H90.689H67.189V12.5ZM43.689 13L31.72 25H43.955H56.189V13C56.189 6.4 56.069 1 55.923 1C55.777 1 50.272 6.4 43.689 13Z" fill="black"/>
</svg>
