<svg width="43" height="42" viewBox="0 0 43 42" fill="none" xmlns="http://www.w3.org/2000/svg">
<path fill-rule="evenodd" clip-rule="evenodd" d="M15.912 3.34698C15.074 7.80998 11.419 9.62099 7.422 7.55499C4.669 6.12999 4.58799 6.17198 2.31299 10.222L0 14.336L2.659 16.455C6.166 19.252 6.18502 23.201 2.70502 25.736L0.092041 27.639L2.22504 31.82C4.58004 36.436 4.75702 36.516 8.26202 34.575C11.784 32.624 14.971 34.34 15.774 38.62C16.393 41.92 16.525 42 21.362 42C26.157 42 26.317 41.907 26.317 39.115C26.317 37.14 27.107 35.713 28.819 34.59C31.068 33.117 31.615 33.103 34.219 34.449C37.433 36.111 37.886 35.828 40.612 30.454C42.121 27.48 42.088 27.363 39.24 25.454C35.252 22.783 35.295 19.035 39.341 16.645L42.365 14.858L40.157 10.929C37.865 6.85102 36.521 6.28603 33.261 8.03003C30.355 9.58503 26.317 6.59401 26.317 2.88501C26.317 0.0980098 26.15 0 21.428 0C16.675 0 16.522 0.0929849 15.912 3.34698ZM18.317 5.401C18.317 8.937 12.246 12.38 8.78802 10.805C6.67202 9.84099 6.05802 9.96097 4.83002 11.582C3.51802 13.314 3.61705 13.698 5.84705 15.538C9.32505 18.407 9.29202 24.123 5.78302 26.679C3.53702 28.315 3.405 28.738 4.62 30.4C5.753 31.95 6.49699 32.105 8.90399 31.293C13.356 29.792 18.271 33.204 18.302 37.816C18.314 39.75 18.771 40.081 21.062 39.816C23.164 39.574 23.926 38.851 24.312 36.734C24.912 33.445 30.264 29.719 32.423 31.087C36.693 33.79 40.034 29.809 36.142 26.657C32.867 24.005 32.956 18.253 36.317 15.313C38.633 13.287 38.697 13.004 37.184 11.465C35.891 10.152 35.119 10.035 33.487 10.909C30.226 12.654 24.374 9.354 24.342 5.75C24.32 3.367 23.917 3 21.317 3C18.817 3 18.317 3.4 18.317 5.401ZM18.334 15.286C14.748 17.1 13.553 21.184 15.664 24.407C19.305 29.964 27.332 28.115 27.302 21.727C27.284 17.94 26.598 16.71 23.633 15.15C20.994 13.761 21.367 13.751 18.334 15.286ZM18.357 18.452C15.7 21.653 19.602 26.57 23.067 24.388C25.452 22.886 25.745 20.57 23.796 18.621C21.787 16.613 19.931 16.555 18.357 18.452Z" fill="black"/>
</svg>
