<svg width="48" height="36" viewBox="0 0 48 36" fill="none" xmlns="http://www.w3.org/2000/svg">
<path d="M19.091 7.88609C17.773 5.52609 17.798 4.97909 19.333 2.63609C22.414 -2.06691 30 -0.0748839 30 5.43712C30 11.0851 21.895 12.9041 19.091 7.88609Z" fill="black"/>
<path d="M1.91299 15.9341C-0.453006 13.5681 -0.0539978 9.4091 2.746 7.2711C3.646 6.5841 5.19601 6.0211 6.19101 6.0211C8.60501 6.0211 12 9.5281 12 12.0211C12 14.5971 8.576 18.0211 6 18.0211C4.9 18.0211 3.06099 17.0821 1.91299 15.9341Z" fill="black"/>
<path d="M36 12.0211C36 10.9211 36.9 9.1211 38 8.0211C39.1 6.9211 40.9 6.0211 42 6.0211C44.576 6.0211 48 9.4451 48 12.0211C48 14.5971 44.576 18.0211 42 18.0211C39.424 18.0211 36 14.5971 36 12.0211Z" fill="black"/>
<path d="M13.007 18.1851L15.754 17.1821C19.466 15.8261 28.006 15.7781 31.775 17.0921L34.848 18.1641L31.053 21.5921C26.042 26.1201 22.507 26.1221 17.098 21.6031L13.007 18.1851Z" fill="black"/>
<path d="M0 29.5711C0 25.4571 0.429 23.8561 1.75 23.0431C4.103 21.5941 13.065 22.4031 14.418 24.1861C16.533 26.9751 20.492 29.0211 23.772 29.0211C27.583 29.0211 32.481 26.7711 33.799 24.4151C34.943 22.3711 42.956 21.3921 45.854 22.9431C47.647 23.9021 48 24.9911 48 29.5561V35.0211H41H34V32.0211C34 28.5351 34.089 28.5721 30.364 30.5151C26.403 32.5811 21.111 32.3861 17.25 30.0321L14 28.0501V31.5361V35.0211H7H0V29.5711Z" fill="black"/>
</svg>
