<svg width="36" height="52" viewBox="0 0 36 52" fill="none" xmlns="http://www.w3.org/2000/svg">
<path fill-rule="evenodd" clip-rule="evenodd" d="M1.37916 1.62C0.211156 2.788 -0.156827 4.669 0.0581726 8.37C0.302173 12.575 0.762146 13.678 2.60615 14.487C4.77115 15.437 4.85615 15.96 4.85615 28.269C4.85615 42.965 5.97315 46.882 11.0461 49.974C15.2651 52.547 20.4471 52.547 24.6661 49.974C29.7391 46.882 30.8561 42.965 30.8561 28.269C30.8561 15.96 30.9411 15.437 33.1061 14.487C34.9501 13.678 35.4101 12.575 35.6541 8.37C36.1231 0.302995 35.4781 0 17.8561 0C5.49615 0 2.72716 0.271995 1.37916 1.62ZM3.54914 3.64001C3.16814 4.02201 2.85615 6.05799 2.85615 8.16699V12H17.9132H32.9711L32.6632 7.75L32.3561 3.5L18.2991 3.224C10.5681 3.072 3.93014 3.25901 3.54914 3.64001ZM8.85615 28.907C8.85615 42.214 8.97213 43.023 11.2501 45.672C13.1631 47.896 14.4891 48.455 17.8561 48.455C21.2231 48.455 22.5492 47.896 24.4622 45.672C27.8292 41.758 27.4871 41 22.3561 41C19.0981 41 17.8561 40.601 17.8561 39.555C17.8561 38.54 19.2711 38.019 22.6061 37.805C26.5881 37.549 27.3561 37.177 27.3561 35.5C27.3561 33.823 26.5881 33.451 22.6061 33.195C19.3631 32.987 17.8561 32.449 17.8561 31.5C17.8561 30.551 19.3631 30.013 22.6061 29.805C26.5881 29.549 27.3561 29.177 27.3561 27.5C27.3561 25.823 26.5881 25.451 22.6061 25.195C19.3631 24.987 17.8561 24.449 17.8561 23.5C17.8561 22.551 19.3631 22.013 22.6061 21.805C27.1491 21.513 27.3561 21.37 27.3561 18.5V15.5L18.1061 15.212L8.85615 14.925V28.907Z" fill="black"/>
</svg>
