<svg width="44" height="41" viewBox="0 0 44 41" fill="none" xmlns="http://www.w3.org/2000/svg">
<path d="M21.983 40.2344C19.4387 40.2344 17.064 39.7594 14.825 38.8096C12.586 37.8597 10.6523 36.5366 8.98998 34.8743C7.32768 33.212 6.00463 31.2783 5.05474 29.0393C4.10486 26.8003 3.59599 24.3917 3.59599 21.8473C3.59599 19.303 4.07093 16.8944 5.05474 14.6554C6.03855 12.4163 7.32768 10.4827 8.98998 8.78643C10.6523 7.12413 12.586 5.80108 14.825 4.85119C17.064 3.90131 19.4387 3.42637 21.983 3.42637C24.5274 3.42637 26.9021 3.90131 29.1411 4.85119C31.3801 5.80108 33.3477 7.12413 35.01 8.78643C36.6723 10.4487 37.9954 12.4163 38.9453 14.6554C39.8951 16.8944 40.3701 19.2691 40.3701 21.8473C40.3701 24.4256 39.8951 26.8003 38.9453 29.0393C37.9954 31.2783 36.6723 33.212 35.01 34.8743C33.3477 36.5366 31.3801 37.8258 29.1411 38.8096C26.9021 39.7934 24.5274 40.2344 21.983 40.2344ZM28.1912 30.1928L30.3284 28.0555L23.6793 21.4063V11.67H20.5921V22.6276L28.1912 30.2267V30.1928ZM8.41326 0L10.5505 2.13724L2.13724 10.2452L0 8.10794L8.41326 0ZM35.5867 0L44 8.10794L41.8628 10.2452L33.4495 2.13724L35.5867 0ZM22.017 37.1473C26.2914 37.1473 29.9214 35.6546 32.8728 32.6692C35.8242 29.6839 37.3169 26.0879 37.3169 21.8134C37.3169 17.5389 35.8242 13.909 32.8389 10.9576C29.8535 8.00617 26.2575 6.51349 21.983 6.51349C17.7086 6.51349 14.0786 8.00617 11.1272 10.9915C8.14187 13.9769 6.68312 17.5729 6.68312 21.8473C6.68312 26.1218 8.17579 29.7517 11.1611 32.7032C14.1465 35.6885 17.7425 37.1473 22.017 37.1473Z" fill="#1D1D1B"/>
</svg>
