<svg width="54" height="51" viewBox="0 0 54 51" fill="none" xmlns="http://www.w3.org/2000/svg">
<path d="M13.0849 7.86499C11.7669 5.50599 11.7919 4.95699 13.3269 2.61499C14.6249 0.63299 15.8739 0 18.4819 0C22.1109 0 23.9939 2.00298 23.9939 5.86298C23.9939 11.294 15.8359 12.791 13.0849 7.86499Z" fill="black"/>
<path d="M29.9939 5.5C29.9939 3.795 30.5339 1.86001 31.1939 1.20001C31.8539 0.540012 33.7889 0 35.4939 0C37.1989 0 39.1339 0.540012 39.7939 1.20001C40.4539 1.86001 40.9939 3.795 40.9939 5.5C40.9939 7.205 40.4539 9.13999 39.7939 9.79999C39.1339 10.46 37.1989 11 35.4939 11C33.7889 11 31.8539 10.46 31.1939 9.79999C30.5339 9.13999 29.9939 7.205 29.9939 5.5Z" fill="black"/>
<path d="M5.13093 23C0.159927 23 -1.94207 15.469 2.21693 12.557C3.43893 11.701 4.9139 11 5.4939 11C8.2729 11 10.9939 14.226 10.9939 17.522C10.9939 21.115 8.97693 23 5.13093 23Z" fill="black"/>
<path d="M42.5329 18.267C42.0489 16.638 42.5509 15.352 44.3859 13.517C47.3089 10.594 48.7099 10.412 51.7709 12.557C54.4279 14.418 54.7009 18.561 52.3389 21.171C49.2929 24.537 43.9219 22.946 42.5329 18.267Z" fill="black"/>
<path d="M17.6959 26.874C19.1479 24.68 21.4969 22.254 22.9149 21.482C24.3329 20.711 26.0349 20.062 26.6969 20.04C29.4749 19.948 33.0379 22.539 36.0929 26.874C37.8859 29.418 41.0569 33.386 43.1389 35.691C47.7279 40.769 48.8349 44.411 46.8599 47.931L45.4179 50.5L27.1559 50.599C9.76189 50.693 8.82589 50.599 7.44489 48.626C4.83189 44.895 5.67591 41.425 10.5249 35.965C13.0169 33.159 16.2439 29.068 17.6959 26.874Z" fill="black"/>
</svg>
